<svg width="340" height="361" viewBox="0 0 340 361" fill="none" xmlns="http://www.w3.org/2000/svg">
<circle cx="170" cy="191" r="170" fill="white"/>
<path d="M270.123 2.06275C272.047 5.02868 271.825 6.62986 271.49 10.1427C271.409 11.0756 271.409 11.0756 271.326 12.0274C271.118 14.3153 270.876 16.5985 270.633 18.8831C270.437 20.848 270.24 22.8129 270.044 24.7779C269.472 30.4357 268.876 36.0907 268.276 41.7455C267.68 47.38 267.103 53.0163 266.533 58.6535C266.352 60.4375 266.169 62.2213 265.985 64.005C265.875 65.0918 265.766 66.1786 265.653 67.2983C265.555 68.2544 265.458 69.2106 265.357 70.1957C264.779 74.9741 264.779 74.9741 266.388 79.2735C266.941 79.8933 267.493 80.5131 268.063 81.1516C275.778 90.5374 277.981 101.226 278.974 113.029C279.053 113.911 279.132 114.794 279.213 115.703C279.405 117.858 279.592 120.013 279.774 122.169C280.768 122.192 281.763 122.216 282.787 122.24C295.204 122.664 307.039 124.517 316.096 133.862C320.583 139.328 323.129 145.071 325.533 151.692C326.156 153.405 326.807 155.108 327.457 156.811C331.642 168.055 334.203 178.81 333.987 190.836C333.974 192.256 333.974 192.256 333.96 193.705C333.692 209.634 333.692 209.634 330.046 216.314C325.275 216.479 321.753 216.288 317.249 214.486C317.104 215.016 316.959 215.547 316.81 216.093C315.316 221.094 313.842 224.654 309.937 228.197C309.119 228.109 308.301 228.022 307.459 227.932C302.796 228.342 300.823 231.317 297.769 234.652C296.563 235.916 295.354 237.176 294.141 238.433C293.56 239.037 292.979 239.641 292.381 240.263C288.188 244.47 283.551 249.119 277.432 249.334C274.29 249.219 274.29 249.219 273.376 248.305C271.129 248.077 271.129 248.077 268.805 248.305C268.202 248.909 267.599 249.512 266.977 250.133C265.682 250.711 264.364 251.237 263.036 251.733C258.107 253.634 253.358 255.844 248.59 258.113C245.955 259.274 245.955 259.274 243.834 259.72C243.327 259.874 242.82 260.029 242.298 260.188C238.858 270.509 242.297 284.12 245.612 294.178C247.344 299.485 247.531 304.915 247.783 310.46C245.068 310.46 242.353 310.46 239.556 310.46C239.858 311.365 240.16 312.269 240.47 313.202C240.683 316.873 240.64 320.55 240.642 324.227C240.653 325.246 240.664 326.264 240.676 327.314C240.677 328.285 240.679 329.257 240.681 330.258C240.685 331.15 240.689 332.042 240.692 332.961C240.47 335.139 240.47 335.139 238.642 336.967C236.161 337.242 236.161 337.242 233.215 337.252C232.246 337.268 231.276 337.283 230.277 337.299C227.674 336.967 227.674 336.967 226.156 335.845C224.557 333.728 224.62 332.537 224.679 329.901C224.696 328.578 224.696 328.578 224.714 327.228C224.753 325.791 224.753 325.791 224.793 324.324C224.822 322.265 224.85 320.206 224.878 318.147C224.897 317.068 224.916 315.989 224.935 314.877C226.126 278.761 226.126 278.761 215.791 244.649C215.145 245.323 214.498 245.997 213.831 246.692C211.346 249.098 208.833 251.095 206.023 253.104C205.152 253.731 204.281 254.358 203.384 255.004C200.233 257.175 197.912 257.988 194.001 257.931C189.931 256.93 187.823 253.492 185.628 250.133C177.905 236.209 180.005 217.609 183.398 202.581C183.791 200.819 184.134 199.046 184.475 197.273C186.989 185.515 191.74 173.327 198.425 163.3C191.425 163.788 185.419 166.173 179.116 169.07C177.945 169.59 177.945 169.59 176.751 170.12C174.712 171.091 172.835 172.031 171.004 173.355C170.05 175.667 170.05 175.667 170.09 177.925C168.205 180.496 168.205 180.496 166.434 182.495C167.64 182.193 168.847 181.892 170.09 181.581C170.421 188.471 169.446 194.545 167.862 201.233C166.143 208.852 164.974 216.153 164.94 223.973C164.881 228.01 164.256 230.418 161.864 233.681C161.373 234.36 160.883 235.038 160.378 235.737C157.07 238.175 154.043 238.519 149.981 238.251C146.751 237.378 143.852 236.038 140.841 234.595C140.064 234.284 139.288 233.973 138.488 233.652C130.358 230.166 124.754 223.413 121.41 215.261C119.794 209.06 119.426 202.575 118.904 196.206C117.487 197.301 117.487 197.301 116.04 198.419C113.083 200.54 110.748 201.311 107.136 201.918C102.347 203.391 100.559 205.302 98.255 209.542C96.891 212.306 95.5893 215.096 94.3072 217.899C92.7582 221.12 90.9087 224.134 89.0265 227.168C86.6917 230.969 84.4827 234.789 82.4569 238.765C79.2595 244.734 75.0053 249.844 70.7387 255.069C69.1421 257.027 67.5745 259.008 66.0043 260.988C64.7478 262.549 63.4909 264.111 62.2339 265.672C61.7883 266.231 61.3426 266.79 60.8834 267.366C46.5653 285.326 46.5653 285.326 43.0392 287.609C41.204 287.591 41.204 287.591 39.3831 286.695C37.7943 284.767 37.7943 284.767 36.3554 282.353C35.8688 281.566 35.3821 280.779 34.8808 279.968C33.6968 277.058 33.7387 275.917 34.8129 272.984C36.3482 270.756 36.3482 270.756 38.3548 268.414C39.0983 267.534 39.8418 266.654 40.6078 265.747C41.417 264.807 42.2275 263.868 43.0392 262.93C49.9077 254.991 56.3205 246.932 62.2339 238.251C62.9091 237.268 63.5842 236.286 64.2798 235.273C74.7064 219.606 87.7091 199.44 88.0839 180.167C88.1008 179.5 88.1176 178.833 88.1349 178.145C88.1884 176.015 88.2367 173.885 88.2839 171.755C88.3311 169.638 88.3797 167.521 88.4328 165.404C88.4658 164.09 88.4955 162.775 88.5214 161.461C88.6299 157.131 88.9395 152.944 89.6549 148.676C91.4151 147.194 91.4151 147.194 93.5967 146.448C94.3095 146.185 95.0224 145.922 95.7568 145.652C97.6743 145.081 99.5903 144.565 101.537 144.106C99.9238 142.993 99.9238 142.993 97.8812 142.278C96.0383 142.932 96.0383 142.932 94.2251 144.106C91.0617 145.566 88.5631 146.629 85.0848 145.934C83.1944 144.245 81.9912 142.559 80.5146 140.449C80.5146 139.846 80.5146 139.243 80.5146 138.621C79.9113 138.923 79.3081 139.225 78.6865 139.535C77.2787 139.599 75.8682 139.613 74.4591 139.593C73.7121 139.584 72.9651 139.576 72.1955 139.568C71.3365 139.552 71.3365 139.552 70.4602 139.535C66.5072 133.437 69.0512 123.432 70.4281 116.635C71.2848 112.673 72.2237 108.735 73.2023 104.802C72.1678 104.823 71.1333 104.845 70.0675 104.866C68.7131 104.884 67.3587 104.9 66.0043 104.916C65.3221 104.932 64.6399 104.947 63.937 104.963C62.1499 104.979 60.3625 104.897 58.5778 104.802C56.7497 102.974 56.7497 102.974 56.2927 100.232C56.4572 95.2347 59.5604 91.4742 62.2339 87.4356C73.7906 69.8024 77.8085 52.5036 80.1147 31.7367C80.3993 29.1838 80.6861 26.6313 80.981 24.0795C81.1631 22.5034 81.3394 20.9266 81.5091 19.3491C82.535 10.4645 82.535 10.4645 85.9988 7.00067C97.9283 6.17745 110.037 12.2936 120.732 17.055C121.303 17.3084 121.873 17.5617 122.461 17.8227C138.009 24.8468 157.236 37.6581 165.762 52.9487C167.337 54.8728 167.337 54.8728 170.415 54.6875C171.571 54.5602 172.726 54.433 173.917 54.3019C175.08 54.1841 176.243 54.0662 177.441 53.9448C178.333 53.8364 179.225 53.728 180.144 53.6164C180.39 52.9577 180.637 52.2991 180.89 51.6205C189.133 32.0065 206.901 19.4178 225.846 11.5708C235.236 7.77109 244.721 4.34018 254.581 1.97349C255.191 1.82702 255.801 1.68055 256.429 1.52964C266.067 -0.591277 266.067 -0.591277 270.123 2.06275Z" fill="#172526"/>
<path d="M222.19 70.0689C222.765 70.255 223.341 70.4412 223.933 70.633C238.539 75.4557 252.231 84.5211 259.404 98.4289C263.161 107.119 264.4 116.43 264.235 125.825C263.468 125.883 262.701 125.94 261.911 126C245.413 127.68 230.93 134.094 216.085 141.174C209.558 144.239 203.445 146.421 196.411 147.904C184.535 150.544 168.924 154.532 160.949 164.214C162.264 168.815 164.516 170.603 168.262 173.355C169.167 173.656 170.072 173.958 171.004 174.269C170.036 177.379 169.168 179.765 167.348 182.495C168.253 182.193 169.158 181.892 170.09 181.581C170.421 188.471 169.446 194.545 167.862 201.233C166.143 208.852 164.974 216.153 164.94 223.973C164.881 228.01 164.256 230.418 161.864 233.681C161.373 234.359 160.883 235.038 160.378 235.737C157.07 238.175 154.043 238.519 149.981 238.251C146.751 237.378 143.852 236.038 140.841 234.595C140.064 234.284 139.288 233.973 138.488 233.652C130.358 230.166 124.754 223.412 121.41 215.261C119.794 209.06 119.426 202.575 118.904 196.205C117.487 197.301 117.487 197.301 116.04 198.419C113.083 200.54 110.748 201.311 107.136 201.918C102.347 203.391 100.559 205.302 98.255 209.541C96.891 212.306 95.5893 215.096 94.3072 217.899C92.7582 221.12 90.9087 224.134 89.0265 227.168C86.6917 230.969 84.4827 234.789 82.4569 238.765C79.2595 244.734 75.0053 249.843 70.7387 255.069C69.1421 257.027 67.5745 259.008 66.0043 260.988C64.7477 262.549 63.4909 264.111 62.2339 265.672C61.5654 266.511 61.5654 266.511 60.8834 267.366C46.5653 285.326 46.5653 285.326 43.0392 287.609C41.204 287.591 41.204 287.591 39.3831 286.695C37.7943 284.767 37.7943 284.767 36.3554 282.353C35.8688 281.566 35.3821 280.779 34.8808 279.968C33.6968 277.058 33.7387 275.917 34.8129 272.984C36.3482 270.756 36.3482 270.756 38.3548 268.414C39.0983 267.534 39.8418 266.654 40.6078 265.747C41.417 264.807 42.2275 263.868 43.0392 262.93C49.9077 254.99 56.3205 246.932 62.2339 238.251C62.9091 237.268 63.5842 236.286 64.2798 235.273C74.7064 219.606 87.7091 199.44 88.0839 180.167C88.1008 179.5 88.1176 178.832 88.1349 178.145C88.1884 176.015 88.2367 173.885 88.2839 171.755C88.3311 169.638 88.3797 167.521 88.4328 165.404C88.4658 164.09 88.4955 162.775 88.5214 161.461C88.6299 157.131 88.9395 152.944 89.6549 148.676C91.4151 147.194 91.4151 147.194 93.5967 146.448C94.3095 146.185 95.0224 145.922 95.7568 145.652C97.6743 145.081 99.5903 144.564 101.537 144.106C99.7276 143.201 99.7276 143.201 97.8812 142.277C100.628 139.435 103.414 136.887 106.52 134.429C115.209 127.481 121.553 119.049 128.105 110.136C129.036 108.872 129.968 107.608 130.901 106.345C131.355 105.729 131.808 105.114 132.276 104.48C135.656 99.9691 139.278 96.0504 143.365 92.1592C145.281 90.3035 147.005 88.3872 148.724 86.3501C166.691 65.632 197.054 61.6463 222.19 70.0689Z" fill="#E0E1DE"/>
<path d="M283.259 137.365C284.397 137.346 284.397 137.346 285.557 137.326C290.074 137.362 293.251 137.913 297.14 140.45C299.408 143.85 299.392 145.566 298.969 149.59C297.426 151.818 297.426 151.818 295.312 153.246C292.799 153.475 292.799 153.475 290.742 153.246C289.054 150.398 288.566 148.326 288.914 145.02C289.517 144.417 290.121 143.813 290.742 143.192C286.374 143.017 282.86 143.159 278.86 145.02C277.602 146.773 277.602 146.773 277.032 148.676C276.73 149.279 276.428 149.882 276.118 150.504C275.312 156.055 276.159 159.89 279.381 164.468C282.36 168.058 286.122 171.075 290.814 171.834C296.802 171.941 301.331 170.545 305.924 166.61C307 165.549 308.019 164.43 309.023 163.3C314.266 171.733 318.303 178.794 318.277 188.95C318.28 189.885 318.282 190.819 318.285 191.782C318.179 194.043 317.834 195.867 317.249 198.034C316.73 197.88 316.21 197.727 315.675 197.569C313.3 197.054 311.443 196.835 309.023 197.12C306.271 199.176 304.536 201.834 302.625 204.66C301.523 206.182 300.421 207.703 299.318 209.223C298.792 209.969 298.266 210.715 297.723 211.483C295.765 214.217 293.683 216.806 291.542 219.399C290.936 220.142 290.331 220.884 289.707 221.649C287.99 223.638 286.306 225.532 284.344 227.283C282.002 227.283 282.002 227.283 279.774 226.369C278.117 224.484 278.117 224.484 277.032 222.713C270.969 223.018 267.966 224.372 263.435 228.311C262.314 229.232 261.192 230.152 260.069 231.071C259.529 231.519 258.99 231.968 258.434 232.43C252.825 237.074 247.25 240.529 240.528 243.278C239.932 243.523 239.336 243.768 238.723 244.02C234.421 245.68 234.421 245.68 231.33 244.649C230.98 226.163 230.98 226.163 232.751 219.167C233.463 215.777 233.269 212.452 233.158 209.002C230.505 207.675 228.796 207.748 225.846 208.088C221.349 211.261 219.001 214.496 216.42 219.285C212.475 226.238 207.89 231.941 201.167 236.423C200.262 236.423 199.357 236.423 198.425 236.423C193.18 225.934 197.783 207.099 201.314 196.467C204.554 187.638 209.256 179.788 214.474 172.002C215.83 169.631 216.441 167.607 217.048 164.957C219.122 157.19 226.142 153.458 232.644 149.476C248.111 140.769 265.676 137.568 283.259 137.365Z" fill="#E1E2DF"/>
<path d="M107.707 144.049C109.312 144.061 109.312 144.061 110.949 144.074C111.764 144.084 112.58 144.095 113.42 144.106C114.15 146.215 114.459 147.381 113.752 149.533C113.276 150.466 113.276 150.466 112.791 151.418C108.569 160.421 105.773 168.753 107.022 178.839C107.625 179.744 108.228 180.649 108.85 181.581C113.136 179.072 115.954 176.203 119.143 172.412C121.997 169.18 125.452 165.384 129.926 164.943C130.643 164.929 131.361 164.915 132.1 164.9C132.816 164.876 133.531 164.853 134.268 164.829C136.737 165.198 137.537 165.889 139.013 167.871C138.846 170.783 137.79 173.243 136.728 175.925C132.945 185.909 133.019 199.594 136.221 209.716C137.789 213.016 139.551 214.431 142.669 216.314C143.574 216.314 144.479 216.314 145.411 216.314C146.097 214.677 146.783 213.039 147.468 211.401C147.888 210.4 148.309 209.398 148.742 208.366C149.493 206.536 150.221 204.696 150.906 202.839C152.893 197.455 155.371 193.241 159.121 188.893C159.576 188.363 160.031 187.833 160.5 187.287C163.416 184.126 165.914 182.575 170.09 181.581C170.421 188.471 169.446 194.545 167.862 201.233C166.143 208.852 164.974 216.153 164.94 223.973C164.881 228.01 164.256 230.418 161.864 233.681C161.373 234.36 160.883 235.038 160.378 235.737C157.07 238.175 154.043 238.519 149.981 238.251C146.751 237.378 143.852 236.038 140.841 234.595C140.064 234.284 139.288 233.973 138.488 233.652C130.358 230.166 124.754 223.413 121.41 215.261C119.794 209.06 119.426 202.575 118.904 196.206C117.959 196.936 117.014 197.667 116.04 198.419C113.083 200.54 110.748 201.311 107.136 201.918C102.347 203.391 100.559 205.302 98.255 209.542C96.891 212.306 95.5893 215.096 94.3072 217.899C92.7582 221.12 90.9087 224.134 89.0265 227.168C86.6917 230.969 84.4827 234.789 82.4569 238.765C79.2595 244.734 75.0053 249.844 70.7387 255.069C69.1421 257.027 67.5745 259.008 66.0043 260.988C64.7478 262.549 63.4909 264.111 62.2339 265.672C61.5654 266.511 61.5654 266.511 60.8834 267.366C46.5653 285.326 46.5653 285.326 43.0392 287.609C41.204 287.591 41.204 287.591 39.3831 286.695C37.7943 284.767 37.7943 284.767 36.3554 282.353C35.8688 281.566 35.3821 280.779 34.8808 279.968C33.6968 277.058 33.7387 275.917 34.8129 272.984C36.3482 270.756 36.3482 270.756 38.3548 268.414C39.0983 267.534 39.8418 266.654 40.6078 265.747C41.417 264.807 42.2275 263.868 43.0392 262.93C49.9077 254.991 56.3205 246.932 62.2339 238.251C62.9091 237.268 63.5842 236.286 64.2798 235.273C74.7064 219.606 87.7091 199.44 88.0839 180.167C88.1008 179.5 88.1176 178.833 88.1349 178.145C88.1884 176.015 88.2367 173.885 88.2839 171.755C88.3311 169.638 88.3797 167.521 88.4328 165.404C88.4658 164.09 88.4955 162.776 88.5214 161.461C88.6299 157.131 88.9395 152.944 89.6549 148.676C91.4151 147.194 91.4151 147.194 93.5967 146.448C94.3095 146.185 95.0224 145.922 95.7568 145.652C96.4579 145.443 97.1589 145.235 97.8812 145.02C98.4456 144.841 99.01 144.662 99.5915 144.477C102.313 143.958 104.939 144.021 107.707 144.049Z" fill="#182626"/>
<path d="M96.9672 25.2814C109.8 27.4207 123.326 35.5705 132.614 44.4761C133.394 45.1524 134.174 45.8287 134.978 46.5255C148.047 57.8672 148.047 57.8672 149.981 63.6708C149.212 64.1362 148.442 64.6016 147.65 65.0811C143.912 67.581 140.972 70.726 137.927 74.0108C137.029 74.9743 137.029 74.9743 136.113 75.9573C130.437 82.1532 125.526 88.7746 120.732 95.6619C104.238 119.061 104.238 119.061 90.5689 122.169C89.3624 122.169 88.1559 122.169 86.9128 122.169C87.704 117.184 88.6069 113.813 91.5972 109.715C93.3926 107.15 94.219 105.744 94.9106 102.631C94.2192 99.2895 93.2092 97.421 91.483 94.5194C86.3803 85.5381 88.9436 77.957 91.4832 68.537C95.1358 54.5213 96.2182 39.7177 96.9672 25.2814Z" fill="#DFE2E1"/>
<path d="M253.267 19.7972C253.547 27.01 252.871 34.0023 251.96 41.1413C251.579 44.1416 251.259 47.1421 250.975 50.1531C250.899 50.9401 250.824 51.7272 250.746 52.5381C250.601 54.0681 250.462 55.5986 250.329 57.1297C249.996 60.5694 249.733 62.5737 247.783 65.4988C247.282 65.1559 246.781 64.8131 246.265 64.4598C234.982 57.176 221.744 53.831 208.479 52.5881C207.684 52.5092 206.889 52.4302 206.069 52.3489C204.131 52.1572 202.192 51.9721 200.253 51.7883C204.501 40.0001 216.602 32.1727 227.42 26.8863C231.861 24.8221 236.378 23.1148 241.042 21.6252C241.636 21.4352 242.231 21.2452 242.844 21.0495C246.404 19.9934 249.561 19.6147 253.267 19.7972Z" fill="#E0E1E0"/>
<path d="M109.082 266.333C110.126 266.486 110.126 266.486 111.192 266.643C111.891 266.729 112.589 266.815 113.309 266.904C115.623 267.615 116.472 268.373 117.99 270.242C119.263 276.264 117.141 282.113 115.134 287.723C114.845 288.562 114.556 289.4 114.258 290.264C112.533 295.206 110.671 300.079 108.678 304.918C104.953 313.995 102.555 323.375 100.359 332.921C99.7093 335.139 99.7093 335.139 97.8812 337.881C95.6318 338.213 95.6318 338.213 92.9683 338.166C92.094 338.163 91.2198 338.159 90.319 338.156C87.8351 337.882 86.3003 337.319 84.1707 336.053C85.1677 325.825 87.8013 316.389 90.7426 306.584C91.4747 304.09 92.1625 301.588 92.8362 299.077C94.9111 291.395 97.1246 283.899 100.281 276.583C100.534 275.99 100.787 275.397 101.048 274.786C104.631 266.88 104.631 266.88 109.082 266.333Z" fill="#192525"/>
<path d="M220.876 101.66C222.977 105.224 222.619 108.99 222.19 113.028C221.888 113.632 221.586 114.235 221.276 114.857C219.847 114.726 218.419 114.592 216.991 114.457C216.196 114.382 215.401 114.308 214.581 114.232C212.135 113.943 212.135 113.943 209.836 113.475C198.848 111.315 190.651 115.181 181.287 120.626C176.869 123.083 174.189 124.034 169.176 123.083C166.377 121.083 166.377 121.083 164.606 118.513C164.848 114.731 166 112.96 168.776 110.458C182.578 98.8199 204.344 91.5795 220.876 101.66Z" fill="#1B2A2A"/>
<path d="M106.108 41.734C118.841 43.6127 128.769 52.6033 137.099 61.9748C137.594 62.8143 137.594 62.8143 138.099 63.6708C137.185 66.4129 137.185 66.4129 135.017 67.6233C134.092 68.0345 133.168 68.4457 132.215 68.8694C123.051 73.3043 116.94 78.7283 111.22 87.1429C109.764 89.2637 109.764 89.2637 107.936 91.0918C105.153 90.9142 103.102 90.5558 100.68 89.1495C99.05 86.2722 99.8198 84.1444 100.623 81.0374C103.441 76.7721 107.035 74.336 111.249 71.6115C111.871 71.1961 112.493 70.7808 113.134 70.3529C117.739 67.3269 117.739 67.3269 119.818 67.3269C117.854 65.259 115.8 63.6065 113.477 61.957C109.544 59.049 106.985 55.846 104.279 51.7884C104.037 50.0174 104.037 50.0174 104.051 48.1322C104.046 47.5101 104.042 46.888 104.037 46.247C104.279 44.4761 104.279 44.4761 106.108 41.734Z" fill="#19282C"/>
<path d="M213.299 117.609C216.707 119.56 218.24 122.201 219.448 125.825C219.785 130.965 219.601 134.175 216.706 138.621C212.983 142.216 208.448 143.289 203.395 143.591C200.169 143.51 199.469 143.29 196.768 141.249C195.778 139.948 195.778 139.948 194.769 138.621C194.071 137.811 193.374 137 192.655 136.165C190.545 132.022 190.378 128.561 191.113 123.997C195.739 114.574 204.314 113.832 213.299 117.609Z" fill="#1A2C2F"/>
<path d="M296.226 182.495C296.83 183.098 297.433 183.702 298.054 184.323C297.878 189.619 297.155 193.091 293.484 197.12C284.889 202.525 276.174 204.479 266.063 203.518C264.235 201.69 264.235 201.69 263.721 198.719C264.36 194.459 265.521 193.751 268.725 191.161C271.86 188.938 275.172 187.338 278.688 185.808C279.41 185.491 280.132 185.174 280.875 184.847C285.865 182.759 290.799 181.017 296.226 182.495Z" fill="#152222"/>
<path d="M157.293 306.804C159.764 308.45 159.764 308.45 161.864 311.374C162.475 315.062 162.376 318.671 162.263 322.399C162.258 323.394 162.253 324.389 162.247 325.414C162.117 333.89 162.117 333.89 160.035 336.967C157.489 337.815 155.821 338.03 153.18 338.052C152.473 338.065 151.766 338.078 151.038 338.091C149.067 337.881 149.067 337.881 146.325 336.053C145.97 333.652 145.97 333.652 145.961 330.636C145.955 329.006 145.955 329.006 145.95 327.343C145.961 326.201 145.971 325.06 145.982 323.885C145.972 322.754 145.961 321.624 145.95 320.459C145.954 319.368 145.957 318.278 145.961 317.154C145.964 316.156 145.967 315.158 145.97 314.129C146.369 311.032 147.223 309.302 149.067 306.804C152.015 305.33 154.151 306.058 157.293 306.804Z" fill="#1D2929"/>
<path d="M188.371 313.202C191.02 312.741 191.02 312.741 194.197 312.688C195.763 312.629 195.763 312.629 197.361 312.57C200.253 313.202 200.253 313.202 202.434 315.48C204.241 319.408 204.423 322.367 204.309 326.627C204.315 327.32 204.322 328.013 204.329 328.728C204.272 333.695 204.272 333.695 202.684 336.013C199.965 337.721 197.503 338.046 194.369 338.109C193.673 338.133 192.976 338.156 192.259 338.181C189.609 337.795 188.485 336.968 186.542 335.139C186.098 333.109 186.098 333.109 186.121 330.768C186.125 329.924 186.128 329.079 186.132 328.208C186.154 327.328 186.177 326.448 186.2 325.541C186.201 324.661 186.202 323.781 186.203 322.874C186.285 316.329 186.285 316.329 188.371 313.202Z" fill="#212624"/>
<path d="M168.262 271.156C170.606 272.527 172.733 273.8 174.66 275.726C174.982 280.554 175.123 283.717 171.918 287.609C168.979 289.737 166.333 289.935 162.778 289.437C160.104 287.768 157.81 285.901 156.379 283.039C155.917 278.263 155.917 278.263 156.379 275.726C160.083 271.925 162.993 270.65 168.262 271.156Z" fill="#1E2A29"/>
<path d="M117.99 69.155C116.927 71.668 115.747 73.2904 113.934 75.3819C110.666 79.1899 109.023 83.4577 107.936 88.3497C107.634 88.953 107.332 89.5562 107.022 90.1778C104.529 90.3799 102.941 90.4553 100.738 89.2066C99.0474 86.2959 99.8042 84.2048 100.623 81.0375C103.179 77.2993 106.056 75.003 109.821 72.5255C111.251 71.5694 111.251 71.5694 112.709 70.5939C115.248 69.155 115.248 69.155 117.99 69.155Z" fill="#0E191A"/>
<path d="M239.556 40.8199C240.16 41.4232 240.763 42.0264 241.384 42.648C241.258 46.5628 241.119 48.962 238.985 52.2453C235.464 54.4695 232.151 53.9723 228.188 53.1594C227.717 53.0086 227.245 52.8577 226.76 52.7023C226.443 49.2911 226.493 47.638 228.359 44.7046C231.94 41.1236 234.467 40.3774 239.556 40.8199Z" fill="#27302F"/>
<path d="M292.57 138.621C295.909 139.764 296.94 140.149 298.968 143.192C299.362 146.801 299.522 148.79 297.426 151.818C294.961 153.483 293.657 153.57 290.742 153.246C289.054 150.398 288.566 148.326 288.914 145.02C289.517 144.416 290.121 143.813 290.742 143.192C289.837 142.588 288.932 141.985 288 141.364C289.508 141.364 291.016 141.364 292.57 141.364C292.57 140.459 292.57 139.554 292.57 138.621Z" fill="#D7DCDD"/>
<path d="M197.511 112.115C205.783 111.65 213.264 113.04 221.276 114.857C219.768 116.365 218.259 117.873 216.706 119.427C216.173 119.239 215.64 119.052 215.092 118.859C208.932 116.835 203.059 116.093 196.597 115.771C196.898 114.564 197.2 113.358 197.511 112.115Z" fill="#E8EDEA"/>
<path d="M106.108 41.734C111.48 42.3108 115.607 43.871 119.818 47.2182C119.818 47.5198 119.818 47.8215 119.818 48.1322C114.992 48.7355 110.166 49.3388 105.193 49.9603C105.193 42.648 105.193 42.648 106.108 41.734Z" fill="#0F1315"/>
<path d="M177.402 170.613C177.402 171.216 177.402 171.819 177.402 172.441C176.497 172.742 175.592 173.044 174.66 173.355C173.781 176.059 173.781 176.059 173.232 179.239C172.102 185.053 172.102 185.053 170.09 187.065C170.09 185.255 170.09 183.446 170.09 181.581C168.582 182.184 167.074 182.788 165.52 183.409C167.329 180.393 169.139 177.377 171.004 174.269C170.099 173.967 169.194 173.666 168.262 173.355C169.441 172.894 170.622 172.438 171.804 171.984C172.79 171.602 172.79 171.602 173.796 171.213C175.574 170.613 175.574 170.613 177.402 170.613Z" fill="#9DA098"/>
<path d="M97.8812 140.45C98.4845 140.751 99.0877 141.053 99.7093 141.364C99.4076 141.665 99.106 141.967 98.7952 142.278C102.716 142.579 106.638 142.881 110.678 143.192C110.678 143.493 110.678 143.795 110.678 144.106C109.435 144.256 109.435 144.256 108.168 144.409C100.536 145.387 100.536 145.387 93.1968 147.59C91.2795 148.312 91.2795 148.312 89.6549 148.676C87.3127 147.476 87.3127 147.476 85.9988 145.934C86.8259 145.685 86.8259 145.685 87.6697 145.43C93.1793 143.722 93.1793 143.722 97.8812 140.45Z" fill="#ABB2AE"/>
<path d="M223.104 134.051C224.009 134.051 224.914 134.051 225.846 134.051C224.932 136.793 224.932 136.793 223.335 137.874C221.095 138.978 218.85 140.069 216.591 141.135C215.821 141.523 215.05 141.91 214.256 142.31C209.403 144.623 206.41 145.498 201.167 144.106C201.167 143.804 201.167 143.502 201.167 143.192C201.763 143.091 202.359 142.991 202.974 142.888C207.62 142.045 211.769 141.236 215.791 138.621C217.075 136.747 217.075 136.747 217.62 134.965C220.334 135.418 220.334 135.418 223.104 135.879C223.104 135.276 223.104 134.673 223.104 134.051Z" fill="#C6CDC4"/>
<path d="M170.09 181.581C170.178 186.56 170.207 191.305 169.176 196.206C168.573 196.206 167.969 196.206 167.348 196.206C167.281 195.232 167.281 195.232 167.212 194.238C167.11 192.978 167.11 192.978 167.005 191.693C166.941 190.855 166.878 190.017 166.812 189.154C166.687 188.465 166.562 187.775 166.434 187.065C165.83 186.764 165.227 186.462 164.606 186.151C164.606 185.246 164.606 184.341 164.606 183.409C168.033 181.581 168.033 181.581 170.09 181.581Z" fill="#5D665D"/>
<path d="M169.176 174.269C169.779 174.269 170.382 174.269 171.004 174.269C169.82 179.074 167.568 181.822 164.034 185.123C163.563 185.578 163.092 186.033 162.606 186.501C161.453 187.612 160.288 188.711 159.121 189.807C158.82 188.902 158.518 187.998 158.207 187.065C158.792 186.858 159.376 186.651 159.978 186.437C162.101 185.395 162.101 185.395 162.378 183.009C162.51 182.236 162.642 181.463 162.778 180.667C164.091 179.01 164.091 179.01 165.52 177.925C166.123 177.925 166.726 177.925 167.348 177.925C167.348 177.322 167.348 176.718 167.348 176.097C167.951 176.097 168.554 176.097 169.176 176.097C169.176 175.494 169.176 174.89 169.176 174.269Z" fill="#CACAC5"/>
<path d="M116.162 76.4673C116.765 77.0705 117.368 77.6738 117.99 78.2954C116.659 80.0867 115.326 81.8764 113.991 83.6653C113.614 84.1731 113.237 84.6809 112.849 85.2042C111.294 87.2849 109.775 89.2527 107.936 91.0918C105.993 90.7491 105.993 90.7491 104.279 90.1778C105.184 90.1778 106.089 90.1778 107.022 90.1778C107.248 89.2163 107.474 88.2549 107.707 87.2643C109.11 82.3722 111.99 79.2979 116.162 76.4673Z" fill="#193636"/>
<path d="M197.511 113.029C197.511 113.632 197.511 114.235 197.511 114.857C198.114 115.46 198.717 116.063 199.339 116.685C198.321 117.222 198.321 117.222 197.282 117.77C194.588 119.546 193.004 121.405 191.113 123.997C191.142 122.152 191.172 120.308 191.202 118.463C191.228 116.61 191.228 116.61 190.199 114.857C192.855 113.708 194.582 113.029 197.511 113.029Z" fill="#D8D8D5"/>
<path d="M197.511 112.115C199.129 112.065 200.748 112.03 202.367 112C203.268 111.979 204.169 111.958 205.098 111.936C207.565 112.115 207.565 112.115 210.307 113.943C209.402 113.943 208.498 113.943 207.565 113.943C207.565 114.546 207.565 115.149 207.565 115.771C203.946 115.771 200.326 115.771 196.597 115.771C196.898 114.564 197.2 113.358 197.511 112.115Z" fill="#E8E8E7"/>
<path d="M260.579 106.63C261.182 106.63 261.786 106.63 262.407 106.63C263.508 113.078 264.492 119.275 264.235 125.825C262.727 125.825 261.219 125.825 259.665 125.825C260.268 125.523 260.872 125.222 261.493 124.911C261.611 118.77 261.15 112.744 260.579 106.63Z" fill="#D7DBD8"/>
<path d="M128.958 54.5305C136.455 60.6925 136.455 60.6925 138.099 63.6708C137.797 64.5757 137.495 65.4806 137.185 66.4129C135.676 66.7146 134.168 67.0162 132.614 67.327C132.916 66.4221 133.218 65.5172 133.529 64.5849C131.842 59.6868 131.842 59.6868 128.044 56.3586C128.346 55.7553 128.648 55.1521 128.958 54.5305Z" fill="#2D3F40"/>
<path d="M144.497 91.0918C144.799 91.9967 145.1 92.9016 145.411 93.8339C144.751 94.456 144.091 95.0781 143.411 95.7191C141.47 97.6329 139.956 99.6244 138.441 101.889C137.725 102.85 137.009 103.812 136.271 104.802C135.366 104.802 134.461 104.802 133.529 104.802C134.83 100.652 136.93 98.3677 140.041 95.3763C140.873 94.5692 141.705 93.7621 142.562 92.9306C143.2 92.3238 143.839 91.717 144.497 91.0918Z" fill="#E5E7E6"/>
<path d="M99.7093 145.934C98.7896 148.38 98.2997 149.387 95.9032 150.547C95.1609 150.759 94.4186 150.971 93.6538 151.189C92.5333 151.522 92.5333 151.522 91.3901 151.861C90.5312 152.094 90.5312 152.094 89.6549 152.332C89.6549 150.218 89.6549 150.218 90.5689 147.762C93.4579 146.079 96.5787 144.368 99.7093 145.934Z" fill="#364440"/>
<path d="M160.95 187.065C161.251 187.97 161.553 188.875 161.864 189.807C161.017 191.443 161.017 191.443 159.75 193.121C159.133 193.958 159.133 193.958 158.504 194.813C157.293 196.206 157.293 196.206 155.465 197.12C154.514 198.62 153.596 200.142 152.723 201.69C152.422 201.086 152.12 200.483 151.809 199.862C152.791 197.812 152.791 197.812 154.266 195.406C154.74 194.616 155.215 193.827 155.705 193.014C157.271 190.754 158.947 188.941 160.95 187.065Z" fill="#363E34"/>
<path d="M283.43 138.621C286.446 138.621 289.463 138.621 292.57 138.621C292.57 139.526 292.57 140.431 292.57 141.364C288.951 141.967 285.331 142.57 281.602 143.192C282.205 141.683 282.808 140.175 283.43 138.621Z" fill="#EBEFEE"/>
<path d="M292.57 214.486C293.173 214.486 293.777 214.486 294.398 214.486C293.078 217.446 291.421 219.623 289.257 222.027C288.68 222.673 288.102 223.318 287.507 223.984C286.846 224.712 286.846 224.712 286.172 225.455C284.965 225.153 283.759 224.851 282.516 224.541C283.421 223.937 284.326 223.334 285.258 222.713C285.522 222.109 285.786 221.506 286.058 220.884C287.451 218.407 289.068 218.224 291.656 217.228C291.958 216.323 292.259 215.419 292.57 214.486Z" fill="#E5E9E9"/>
<path d="M117.076 71.8971C118.904 72.8111 118.904 72.8111 118.904 72.8111L117.076 71.8971ZM115.248 72.8111C115.851 73.1128 116.454 73.4144 117.076 73.7252C116.333 75.9531 116.333 75.9531 115.248 78.2953C114.343 78.597 113.438 78.8986 112.506 79.2094C111.866 80.4127 111.256 81.6317 110.678 82.8655C109.773 83.3179 109.773 83.3179 108.85 83.7795C110.094 79.0282 112.019 76.38 115.248 72.8111Z" fill="#0D2329"/>
<path d="M103.365 136.793C103.667 137.397 103.969 138 104.279 138.622C103.978 139.225 103.676 139.828 103.365 140.45C104.572 141.354 105.778 142.259 107.022 143.192C104.005 143.192 100.989 143.192 97.8812 143.192C99.5303 140.208 100.472 138.723 103.365 136.793Z" fill="#D7D7D4"/>
<path d="M191.113 123.997C191.414 123.997 191.716 123.997 192.027 123.997C192.027 126.41 192.027 128.823 192.027 131.309C192.932 131.611 193.836 131.912 194.769 132.223C195.07 134.335 195.372 136.446 195.683 138.621C192.878 136.752 192.24 136.166 191.113 133.137C190.934 130.781 190.934 130.781 190.998 128.339C191.023 127.116 191.023 127.116 191.048 125.868C191.07 125.25 191.091 124.633 191.113 123.997Z" fill="#303F40"/>
<path d="M194.769 170.613C195.372 170.914 195.975 171.216 196.597 171.527C195.055 175.638 193.108 179.505 191.113 183.409C190.509 183.409 189.906 183.409 189.285 183.409C190.648 178.864 192.579 174.8 194.769 170.613Z" fill="#2D3331"/>
<path d="M271.547 222.713C271.547 223.316 271.547 223.919 271.547 224.541C270.643 224.541 269.738 224.541 268.805 224.541C268.504 226.049 268.202 227.557 267.891 229.111C265.454 229.72 263.017 230.329 260.579 230.939C268.577 222.713 268.577 222.713 271.547 222.713Z" fill="#37423B"/>
<path d="M104.279 76.4673C104.876 78.0526 104.876 78.0526 105.193 80.1234C104.283 82.08 104.283 82.08 102.966 84.0081C102.533 84.6537 102.101 85.2994 101.655 85.9647C101.315 86.4501 100.974 86.9355 100.623 87.4357C99.8765 85.2944 99.5427 84.203 100.388 82.055C103.264 77.4829 103.264 77.4829 104.279 76.4673Z" fill="#242929"/>
<path d="M200.435 28.3269C200.978 28.5284 201.521 28.7299 202.081 28.9375C201.176 28.9375 200.271 28.9375 199.339 28.9375C199.15 29.4465 198.962 29.9555 198.768 30.4799C197.008 33.4391 194.734 35.0453 192.027 37.1638C192.56 34.2156 193.418 32.6158 195.511 30.4799C195.97 29.9933 196.428 29.5067 196.9 29.0053C198.425 28.0234 198.425 28.0234 200.435 28.3269Z" fill="#171E1B"/>
<path d="M124.388 164.214C124.991 164.516 125.595 164.818 126.216 165.128C125.217 166.355 124.205 167.572 123.189 168.785C122.345 169.803 122.345 169.803 121.485 170.841C119.818 172.441 119.818 172.441 117.076 172.441C119.489 169.726 121.902 167.011 124.388 164.214Z" fill="#E9EEEC"/>
<path d="M224.018 155.074C224.621 155.376 225.224 155.677 225.846 155.988C222.19 161.995 222.19 161.995 218.534 163.3C218.965 159.417 221.245 157.633 224.018 155.074Z" fill="#D9D6C8"/>
<path d="M164.606 183.409C165.511 183.409 166.415 183.409 167.348 183.409C168.203 186.293 168.358 188.862 168.319 191.864C168.311 192.679 168.302 193.495 168.294 194.335C168.283 194.952 168.273 195.569 168.262 196.206C167.96 196.206 167.658 196.206 167.348 196.206C167.281 195.232 167.281 195.232 167.212 194.238C167.11 192.978 167.11 192.978 167.005 191.692C166.941 190.855 166.878 190.017 166.812 189.154C166.687 188.465 166.562 187.775 166.434 187.065C165.83 186.764 165.227 186.462 164.606 186.151C164.606 185.246 164.606 184.341 164.606 183.409Z" fill="#414D45"/>
<path d="M214.877 114.857C216.989 114.857 219.1 114.857 221.276 114.857C219.219 117.199 219.219 117.199 216.706 119.427C214.592 119.255 214.592 119.255 213.049 118.513C213.653 117.306 214.256 116.1 214.877 114.857Z" fill="#EFF3F3"/>
<path d="M262.407 138.621C260.044 140.197 258.716 140.858 256.066 141.535C255.455 141.699 254.843 141.863 254.213 142.031C252.127 142.308 250.689 141.992 248.697 141.364C253.6 138.912 256.932 138.333 262.407 138.621Z" fill="#0A1B1B"/>
<path d="M110.678 83.7795C111.281 83.7795 111.884 83.7795 112.506 83.7795C110.58 89.2612 110.58 89.2612 107.936 91.0918C105.936 90.8062 105.936 90.8062 104.279 90.1778C105.184 90.1778 106.089 90.1778 107.022 90.1778C107.285 89.4614 107.549 88.745 107.821 88.0069C108.85 85.6076 108.85 85.6076 110.678 83.7795Z" fill="#273F40"/>
<path d="M217.62 161.472C218.47 163.804 218.612 164.891 217.823 167.285C217.473 168.006 217.123 168.727 216.763 169.47C216.241 170.566 216.241 170.566 215.709 171.684C215.435 172.235 215.16 172.787 214.877 173.355C214.274 172.751 213.671 172.148 213.049 171.527C213.639 170.193 214.23 168.861 214.82 167.528C215.149 166.785 215.478 166.043 215.816 165.278C216.392 163.998 216.992 162.728 217.62 161.472Z" fill="#525450"/>
<path d="M262.407 117.599C263.01 117.9 263.614 118.202 264.235 118.513C264.235 120.926 264.235 123.339 264.235 125.825C262.727 125.825 261.219 125.825 259.665 125.825C260.268 125.523 260.872 125.222 261.493 124.911C261.918 123.179 261.918 123.179 262.064 121.198C262.177 120.01 262.291 118.822 262.407 117.599Z" fill="#C8D0D0"/>
<path d="M67.7181 79.2094C68.6322 81.9514 68.6322 81.9514 67.7181 84.6935C67.1149 84.6935 66.5116 84.6935 65.8901 84.6935C65.2868 85.9001 64.6836 87.1066 64.062 88.3497C63.4588 88.0481 62.8555 87.7464 62.2339 87.4356C64.0437 84.721 65.8535 82.0063 67.7181 79.2094Z" fill="#2E3935"/>
<path d="M226.76 52.7024C229.254 52.7324 231.601 53.2179 234.072 53.6164C233.771 54.2197 233.469 54.8229 233.158 55.4445C230.483 56.3122 229.11 56.5704 226.474 55.5016C225.965 55.1811 225.456 54.8607 224.932 54.5305C225.535 53.9272 226.138 53.3239 226.76 52.7024Z" fill="#879290"/>
<path d="M271.547 138.621C271.246 139.225 270.944 139.828 270.633 140.45C268.841 140.892 268.841 140.892 266.635 141.135C265.911 141.225 265.188 141.314 264.442 141.406C262.407 141.364 262.407 141.364 259.665 139.535C263.674 138.894 267.487 138.522 271.547 138.621Z" fill="#CED6D6"/>
<path d="M92.397 93.8339C95.1391 94.7479 95.1391 94.7479 96.2817 96.2903C97.1843 99.0733 96.6932 101.072 96.0532 103.888C95.7515 103.888 95.4499 103.888 95.1391 103.888C93.7818 98.9113 93.7818 98.9113 92.397 93.8339Z" fill="#C3CBC8"/>
<path d="M158.207 77.3813C158.207 78.2862 158.207 79.1911 158.207 80.1234C156.037 82.0086 156.037 82.0086 153.637 83.7796C153.034 84.3828 152.431 84.9861 151.809 85.6076C151.809 82.8655 151.809 82.8655 153.209 81.3981C154.1 80.6823 154.1 80.6823 155.008 79.9521C155.602 79.4678 156.196 78.9835 156.808 78.4846C157.27 78.1205 157.732 77.7565 158.207 77.3813Z" fill="#D6DDD4"/>
<path d="M220.362 112.114C220.663 113.019 220.965 113.924 221.276 114.856C218.259 114.555 215.243 114.253 212.135 113.942C215.275 111.849 216.692 111.951 220.362 112.114Z" fill="#384744"/>
<path d="M57.6638 94.7479C57.9654 94.7479 58.267 94.7479 58.5778 94.7479C58.5401 95.5586 58.5024 96.3692 58.4635 97.2044C58.5769 100.207 59.1389 102.11 60.4059 104.802C59.1993 104.199 57.9928 103.596 56.7497 102.974C56.6355 96.8045 56.6355 96.8045 57.6638 94.7479Z" fill="#303D37"/>
<path d="M228.588 26.1954C229.191 26.4971 229.794 26.7987 230.416 27.1095C227.117 30.1176 224.816 31.2652 220.362 31.6796C222.689 28.9643 225.318 27.587 228.588 26.1954Z" fill="#C0C9C4"/>
<path d="M62.2339 238.251C63.1388 238.553 64.0437 238.854 64.976 239.165C63.4679 240.975 61.9597 242.785 60.4059 244.649C59.8026 244.348 59.1993 244.046 58.5778 243.735C59.7843 241.926 60.9908 240.116 62.2339 238.251Z" fill="#27302E"/>
<path d="M264.235 196.206C264.838 196.206 265.442 196.206 266.063 196.206C266.346 196.922 266.629 197.638 266.92 198.376C267.826 200.706 267.826 200.706 268.805 202.604C267.297 202.302 265.789 202.001 264.235 201.69C264.235 199.88 264.235 198.07 264.235 196.206Z" fill="#11140F"/>
<path d="M181.058 168.785C181.058 169.388 181.058 169.991 181.058 170.613C180.153 170.613 179.248 170.613 178.316 170.613C178.014 171.216 177.713 171.819 177.402 172.441C177.402 171.536 177.402 170.631 177.402 169.699C179.23 168.785 179.23 168.785 181.058 168.785ZM174.66 172.441C175.565 172.742 176.47 173.044 177.402 173.355C175.894 174.561 174.386 175.768 172.832 177.011C173.435 175.503 174.038 173.995 174.66 172.441Z" fill="#BEC0B9"/>
<path d="M292.57 138.621C293.777 138.923 294.983 139.225 296.226 139.535C296.226 140.44 296.226 141.345 296.226 142.278C293.512 142.278 290.797 142.278 288 142.278C288 141.976 288 141.674 288 141.364C289.508 141.364 291.016 141.364 292.57 141.364C292.57 140.459 292.57 139.554 292.57 138.621Z" fill="#CBD3D4"/>
<path d="M295.312 233.681C296.217 233.983 297.122 234.284 298.054 234.595C294.887 237.31 294.887 237.31 291.656 240.079C292.533 236.572 292.786 235.878 295.312 233.681Z" fill="#29342C"/>
<path d="M205.737 231.853C206.642 231.853 207.547 231.853 208.479 231.853C207.876 233.361 207.273 234.869 206.651 236.423C205.445 236.423 204.238 236.423 202.995 236.423C204.709 232.881 204.709 232.881 205.737 231.853Z" fill="#0E1811"/>
<path d="M95.1391 145.934C92.397 147.762 92.397 147.762 89.6549 148.676C87.6555 147.362 87.6555 147.362 85.9988 145.934C89.2678 144.802 91.791 145.249 95.1391 145.934Z" fill="#818483"/>
<path d="M95.1391 142.278C95.4408 142.881 95.7424 143.484 96.0532 144.106C97.863 144.106 99.6727 144.106 101.537 144.106C98.4279 146.019 96.005 146.098 92.397 145.934C93.3019 144.727 94.2068 143.521 95.1391 142.278Z" fill="#9B9F9C"/>
<path d="M115.248 63.6708C117.51 64.5757 117.51 64.5757 119.818 65.4988C119.818 66.1021 119.818 66.7054 119.818 67.3269C118.31 67.9302 116.802 68.5334 115.248 69.155C115.248 67.3269 115.248 65.4988 115.248 63.6708Z" fill="#B6BCB7"/>
<path d="M136.271 60.9287C138.08 61.532 139.89 62.1352 141.755 62.7568C141.453 63.9633 141.152 65.1698 140.841 66.4129C139.936 66.1113 139.031 65.8096 138.099 65.4989C137.013 63.1567 137.013 63.1567 136.271 60.9287Z" fill="#EEEFEE"/>
<path d="M207.565 182.495C208.168 183.4 208.772 184.305 209.393 185.237C208.488 187.047 207.583 188.857 206.651 190.721C206.048 190.42 205.445 190.118 204.823 189.807C206.537 184.552 206.537 184.552 207.565 182.495Z" fill="#D2D9DB"/>
<path d="M96.9672 145.934C96.9672 146.839 96.9672 147.744 96.9672 148.676C94.5541 149.279 92.1411 149.882 89.6549 150.504C89.9565 149.599 90.2582 148.694 90.5689 147.762C92.7926 146.678 94.4812 145.934 96.9672 145.934Z" fill="#5B625F"/>
<path d="M130.786 106.63C131.39 106.63 131.993 106.63 132.614 106.63C132.251 109.268 131.892 110.124 129.815 111.886C129.231 112.263 128.646 112.64 128.044 113.029C128.604 110.321 129.19 109.025 130.786 106.63Z" fill="#E5E7EA"/>
</svg>
