<svg width="2280" height="400" viewBox="0 0 2280 400" fill="none" xmlns="http://www.w3.org/2000/svg">
<circle cx="170" cy="211" r="170" fill="white"/>
<path d="M270.123 22.0628C272.047 25.0287 271.825 26.6299 271.49 30.1427C271.409 31.0756 271.409 31.0756 271.326 32.0274C271.118 34.3153 270.876 36.5985 270.633 38.8831C270.437 40.848 270.24 42.8129 270.044 44.7779C269.472 50.4357 268.876 56.0907 268.276 61.7455C267.68 67.38 267.103 73.0163 266.533 78.6535C266.352 80.4375 266.169 82.2213 265.985 84.005C265.875 85.0918 265.766 86.1786 265.653 87.2983C265.555 88.2544 265.458 89.2106 265.357 90.1957C264.779 94.9741 264.779 94.9741 266.388 99.2735C266.941 99.8933 267.493 100.513 268.063 101.152C275.778 110.537 277.981 121.226 278.974 133.029C279.053 133.911 279.132 134.794 279.213 135.703C279.405 137.858 279.592 140.013 279.774 142.169C280.768 142.192 281.763 142.216 282.787 142.24C295.204 142.664 307.039 144.517 316.096 153.862C320.583 159.328 323.129 165.071 325.533 171.692C326.156 173.405 326.807 175.108 327.457 176.811C331.642 188.055 334.203 198.81 333.987 210.836C333.974 212.256 333.974 212.256 333.96 213.705C333.692 229.634 333.692 229.634 330.046 236.314C325.275 236.479 321.753 236.288 317.249 234.486C317.104 235.016 316.959 235.547 316.81 236.093C315.316 241.094 313.842 244.654 309.937 248.197C309.119 248.109 308.301 248.022 307.459 247.932C302.796 248.342 300.823 251.317 297.769 254.652C296.563 255.916 295.354 257.176 294.141 258.433C293.56 259.037 292.979 259.641 292.381 260.263C288.188 264.47 283.551 269.119 277.432 269.334C274.29 269.219 274.29 269.219 273.376 268.305C271.129 268.077 271.129 268.077 268.805 268.305C268.202 268.909 267.599 269.512 266.977 270.133C265.682 270.711 264.364 271.237 263.036 271.733C258.107 273.634 253.358 275.844 248.59 278.113C245.955 279.274 245.955 279.274 243.834 279.72C243.327 279.874 242.82 280.029 242.298 280.188C238.858 290.509 242.297 304.12 245.612 314.178C247.344 319.485 247.531 324.915 247.783 330.46C245.068 330.46 242.353 330.46 239.556 330.46C239.858 331.365 240.16 332.269 240.47 333.202C240.683 336.873 240.64 340.55 240.642 344.227C240.653 345.246 240.664 346.264 240.676 347.314C240.677 348.285 240.679 349.257 240.681 350.258C240.685 351.15 240.689 352.042 240.692 352.961C240.47 355.139 240.47 355.139 238.642 356.967C236.161 357.242 236.161 357.242 233.215 357.252C232.246 357.268 231.276 357.283 230.277 357.299C227.674 356.967 227.674 356.967 226.156 355.845C224.557 353.728 224.62 352.537 224.679 349.901C224.696 348.578 224.696 348.578 224.714 347.228C224.753 345.791 224.753 345.791 224.793 344.324C224.822 342.265 224.85 340.206 224.878 338.147C224.897 337.068 224.916 335.989 224.935 334.877C226.126 298.761 226.126 298.761 215.791 264.649C215.145 265.323 214.498 265.997 213.831 266.692C211.346 269.098 208.833 271.095 206.023 273.104C205.152 273.731 204.281 274.358 203.384 275.004C200.233 277.175 197.912 277.988 194.001 277.931C189.931 276.93 187.823 273.492 185.628 270.133C177.905 256.209 180.005 237.609 183.398 222.581C183.791 220.819 184.134 219.046 184.475 217.273C186.989 205.515 191.74 193.327 198.425 183.3C191.425 183.788 185.419 186.173 179.116 189.07C177.945 189.59 177.945 189.59 176.751 190.12C174.712 191.091 172.835 192.031 171.004 193.355C170.05 195.667 170.05 195.667 170.09 197.925C168.205 200.496 168.205 200.496 166.434 202.495C167.64 202.193 168.847 201.892 170.09 201.581C170.421 208.471 169.446 214.545 167.862 221.233C166.143 228.852 164.974 236.153 164.94 243.973C164.881 248.01 164.256 250.418 161.864 253.681C161.373 254.36 160.883 255.038 160.378 255.737C157.07 258.175 154.043 258.519 149.981 258.251C146.751 257.378 143.852 256.038 140.841 254.595C140.064 254.284 139.288 253.973 138.488 253.652C130.358 250.166 124.754 243.413 121.41 235.261C119.794 229.06 119.426 222.575 118.904 216.206C117.487 217.301 117.487 217.301 116.04 218.419C113.083 220.54 110.748 221.311 107.136 221.918C102.347 223.391 100.559 225.302 98.255 229.542C96.891 232.306 95.5893 235.096 94.3072 237.899C92.7582 241.12 90.9087 244.134 89.0265 247.168C86.6917 250.969 84.4827 254.789 82.4569 258.765C79.2595 264.734 75.0053 269.844 70.7387 275.069C69.1421 277.027 67.5745 279.008 66.0043 280.988C64.7478 282.549 63.4909 284.111 62.2339 285.672C61.7883 286.231 61.3426 286.79 60.8834 287.366C46.5653 305.326 46.5653 305.326 43.0392 307.609C41.204 307.591 41.204 307.591 39.3831 306.695C37.7943 304.767 37.7943 304.767 36.3554 302.353C35.8688 301.566 35.3821 300.779 34.8808 299.968C33.6968 297.058 33.7387 295.917 34.8129 292.984C36.3482 290.756 36.3482 290.756 38.3548 288.414C39.0983 287.534 39.8418 286.654 40.6078 285.747C41.417 284.807 42.2275 283.868 43.0392 282.93C49.9077 274.991 56.3205 266.932 62.2339 258.251C62.9091 257.268 63.5842 256.286 64.2798 255.273C74.7064 239.606 87.7091 219.44 88.0839 200.167C88.1008 199.5 88.1176 198.833 88.1349 198.145C88.1884 196.015 88.2367 193.885 88.2839 191.755C88.3311 189.638 88.3797 187.521 88.4328 185.404C88.4658 184.09 88.4955 182.775 88.5214 181.461C88.6299 177.131 88.9395 172.944 89.6549 168.676C91.4151 167.194 91.4151 167.194 93.5967 166.448C94.3095 166.185 95.0224 165.922 95.7568 165.652C97.6743 165.081 99.5903 164.565 101.537 164.106C99.9238 162.993 99.9238 162.993 97.8812 162.278C96.0383 162.932 96.0383 162.932 94.2251 164.106C91.0617 165.566 88.5631 166.629 85.0848 165.934C83.1944 164.245 81.9912 162.559 80.5146 160.449C80.5146 159.846 80.5146 159.243 80.5146 158.621C79.9113 158.923 79.3081 159.225 78.6865 159.535C77.2787 159.599 75.8682 159.613 74.4591 159.593C73.7121 159.584 72.9651 159.576 72.1955 159.568C71.3365 159.552 71.3365 159.552 70.4602 159.535C66.5072 153.437 69.0512 143.432 70.4281 136.635C71.2848 132.673 72.2237 128.735 73.2023 124.802C72.1678 124.823 71.1333 124.845 70.0675 124.866C68.7131 124.884 67.3587 124.9 66.0043 124.916C65.3221 124.932 64.6399 124.947 63.937 124.963C62.1499 124.979 60.3625 124.897 58.5778 124.802C56.7497 122.974 56.7497 122.974 56.2927 120.232C56.4572 115.235 59.5604 111.474 62.2339 107.436C73.7906 89.8024 77.8085 72.5036 80.1147 51.7367C80.3993 49.1838 80.6861 46.6313 80.981 44.0795C81.1631 42.5034 81.3394 40.9266 81.5091 39.3491C82.535 30.4645 82.535 30.4645 85.9988 27.0007C97.9283 26.1775 110.037 32.2936 120.732 37.055C121.303 37.3084 121.873 37.5617 122.461 37.8227C138.009 44.8468 157.236 57.6581 165.762 72.9487C167.337 74.8728 167.337 74.8728 170.415 74.6875C171.571 74.5602 172.726 74.433 173.917 74.3019C175.08 74.1841 176.243 74.0662 177.441 73.9448C178.333 73.8364 179.225 73.728 180.144 73.6164C180.39 72.9577 180.637 72.2991 180.89 71.6205C189.133 52.0065 206.901 39.4178 225.846 31.5708C235.236 27.7711 244.721 24.3402 254.581 21.9735C255.191 21.827 255.801 21.6806 256.429 21.5296C266.067 19.4087 266.067 19.4087 270.123 22.0628Z" fill="#172526"/>
<path d="M222.19 90.0689C222.765 90.255 223.341 90.4412 223.933 90.633C238.539 95.4557 252.231 104.521 259.404 118.429C263.161 127.119 264.4 136.43 264.235 145.825C263.468 145.883 262.701 145.94 261.911 146C245.413 147.68 230.93 154.094 216.085 161.174C209.558 164.239 203.445 166.421 196.411 167.904C184.535 170.544 168.924 174.532 160.949 184.214C162.264 188.815 164.516 190.603 168.262 193.355C169.167 193.656 170.072 193.958 171.004 194.269C170.036 197.379 169.168 199.765 167.348 202.495C168.253 202.193 169.158 201.892 170.09 201.581C170.421 208.471 169.446 214.545 167.862 221.233C166.143 228.852 164.974 236.153 164.94 243.973C164.881 248.01 164.256 250.418 161.864 253.681C161.373 254.359 160.883 255.038 160.378 255.737C157.07 258.175 154.043 258.519 149.981 258.251C146.751 257.378 143.852 256.038 140.841 254.595C140.064 254.284 139.288 253.973 138.488 253.652C130.358 250.166 124.754 243.412 121.41 235.261C119.794 229.06 119.426 222.575 118.904 216.205C117.487 217.301 117.487 217.301 116.04 218.419C113.083 220.54 110.748 221.311 107.136 221.918C102.347 223.391 100.559 225.302 98.255 229.541C96.891 232.306 95.5893 235.096 94.3072 237.899C92.7582 241.12 90.9087 244.134 89.0265 247.168C86.6917 250.969 84.4827 254.789 82.4569 258.765C79.2595 264.734 75.0053 269.843 70.7387 275.069C69.1421 277.027 67.5745 279.008 66.0043 280.988C64.7477 282.549 63.4909 284.111 62.2339 285.672C61.5654 286.511 61.5654 286.511 60.8834 287.366C46.5653 305.326 46.5653 305.326 43.0392 307.609C41.204 307.591 41.204 307.591 39.3831 306.695C37.7943 304.767 37.7943 304.767 36.3554 302.353C35.8688 301.566 35.3821 300.779 34.8808 299.968C33.6968 297.058 33.7387 295.917 34.8129 292.984C36.3482 290.756 36.3482 290.756 38.3548 288.414C39.0983 287.534 39.8418 286.654 40.6078 285.747C41.417 284.807 42.2275 283.868 43.0392 282.93C49.9077 274.99 56.3205 266.932 62.2339 258.251C62.9091 257.268 63.5842 256.286 64.2798 255.273C74.7064 239.606 87.7091 219.44 88.0839 200.167C88.1008 199.5 88.1176 198.832 88.1349 198.145C88.1884 196.015 88.2367 193.885 88.2839 191.755C88.3311 189.638 88.3797 187.521 88.4328 185.404C88.4658 184.09 88.4955 182.775 88.5214 181.461C88.6299 177.131 88.9395 172.944 89.6549 168.676C91.4151 167.194 91.4151 167.194 93.5967 166.448C94.3095 166.185 95.0224 165.922 95.7568 165.652C97.6743 165.081 99.5903 164.564 101.537 164.106C99.7276 163.201 99.7276 163.201 97.8812 162.277C100.628 159.435 103.414 156.887 106.52 154.429C115.209 147.481 121.553 139.049 128.105 130.136C129.036 128.872 129.968 127.608 130.901 126.345C131.355 125.729 131.808 125.114 132.276 124.48C135.656 119.969 139.278 116.05 143.365 112.159C145.281 110.303 147.005 108.387 148.724 106.35C166.691 85.632 197.054 81.6463 222.19 90.0689Z" fill="#E0E1DE"/>
<path d="M283.259 157.365C284.397 157.346 284.397 157.346 285.557 157.326C290.074 157.362 293.251 157.913 297.14 160.45C299.408 163.85 299.392 165.566 298.969 169.59C297.426 171.818 297.426 171.818 295.312 173.246C292.799 173.475 292.799 173.475 290.742 173.246C289.054 170.398 288.566 168.326 288.914 165.02C289.517 164.417 290.121 163.813 290.742 163.192C286.374 163.017 282.86 163.159 278.86 165.02C277.602 166.773 277.602 166.773 277.032 168.676C276.73 169.279 276.428 169.882 276.118 170.504C275.312 176.055 276.159 179.89 279.381 184.468C282.36 188.058 286.122 191.075 290.814 191.834C296.802 191.941 301.331 190.545 305.924 186.61C307 185.549 308.019 184.43 309.023 183.3C314.266 191.733 318.303 198.794 318.277 208.95C318.28 209.885 318.282 210.819 318.285 211.782C318.179 214.043 317.834 215.867 317.249 218.034C316.73 217.88 316.21 217.727 315.675 217.569C313.3 217.054 311.443 216.835 309.023 217.12C306.271 219.176 304.536 221.834 302.625 224.66C301.523 226.182 300.421 227.703 299.318 229.223C298.792 229.969 298.266 230.715 297.723 231.483C295.765 234.217 293.683 236.806 291.542 239.399C290.936 240.142 290.331 240.884 289.707 241.649C287.99 243.638 286.306 245.532 284.344 247.283C282.002 247.283 282.002 247.283 279.774 246.369C278.117 244.484 278.117 244.484 277.032 242.713C270.969 243.018 267.966 244.372 263.435 248.311C262.314 249.232 261.192 250.152 260.069 251.071C259.529 251.519 258.99 251.968 258.434 252.43C252.825 257.074 247.25 260.529 240.528 263.278C239.932 263.523 239.336 263.768 238.723 264.02C234.421 265.68 234.421 265.68 231.33 264.649C230.98 246.163 230.98 246.163 232.751 239.167C233.463 235.777 233.269 232.452 233.158 229.002C230.505 227.675 228.796 227.748 225.846 228.088C221.349 231.261 219.001 234.496 216.42 239.285C212.475 246.238 207.89 251.941 201.167 256.423C200.262 256.423 199.357 256.423 198.425 256.423C193.18 245.934 197.783 227.099 201.314 216.467C204.554 207.638 209.256 199.788 214.474 192.002C215.83 189.631 216.441 187.607 217.048 184.957C219.122 177.19 226.142 173.458 232.644 169.476C248.111 160.769 265.676 157.568 283.259 157.365Z" fill="#E1E2DF"/>
<path d="M107.707 164.049C109.312 164.061 109.312 164.061 110.949 164.074C111.764 164.084 112.58 164.095 113.42 164.106C114.15 166.215 114.459 167.381 113.752 169.533C113.276 170.466 113.276 170.466 112.791 171.418C108.569 180.421 105.773 188.753 107.022 198.839C107.625 199.744 108.228 200.649 108.85 201.581C113.136 199.072 115.954 196.203 119.143 192.412C121.997 189.18 125.452 185.384 129.926 184.943C130.643 184.929 131.361 184.915 132.1 184.9C132.816 184.876 133.531 184.853 134.268 184.829C136.737 185.198 137.537 185.889 139.013 187.871C138.846 190.783 137.79 193.243 136.728 195.925C132.945 205.909 133.019 219.594 136.221 229.716C137.789 233.016 139.551 234.431 142.669 236.314C143.574 236.314 144.479 236.314 145.411 236.314C146.097 234.677 146.783 233.039 147.468 231.401C147.888 230.4 148.309 229.398 148.742 228.366C149.493 226.536 150.221 224.696 150.906 222.839C152.893 217.455 155.371 213.241 159.121 208.893C159.576 208.363 160.031 207.833 160.5 207.287C163.416 204.126 165.914 202.575 170.09 201.581C170.421 208.471 169.446 214.545 167.862 221.233C166.143 228.852 164.974 236.153 164.94 243.973C164.881 248.01 164.256 250.418 161.864 253.681C161.373 254.36 160.883 255.038 160.378 255.737C157.07 258.175 154.043 258.519 149.981 258.251C146.751 257.378 143.852 256.038 140.841 254.595C140.064 254.284 139.288 253.973 138.488 253.652C130.358 250.166 124.754 243.413 121.41 235.261C119.794 229.06 119.426 222.575 118.904 216.206C117.959 216.936 117.014 217.667 116.04 218.419C113.083 220.54 110.748 221.311 107.136 221.918C102.347 223.391 100.559 225.302 98.255 229.542C96.891 232.306 95.5893 235.096 94.3072 237.899C92.7582 241.12 90.9087 244.134 89.0265 247.168C86.6917 250.969 84.4827 254.789 82.4569 258.765C79.2595 264.734 75.0053 269.844 70.7387 275.069C69.1421 277.027 67.5745 279.008 66.0043 280.988C64.7478 282.549 63.4909 284.111 62.2339 285.672C61.5654 286.511 61.5654 286.511 60.8834 287.366C46.5653 305.326 46.5653 305.326 43.0392 307.609C41.204 307.591 41.204 307.591 39.3831 306.695C37.7943 304.767 37.7943 304.767 36.3554 302.353C35.8688 301.566 35.3821 300.779 34.8808 299.968C33.6968 297.058 33.7387 295.917 34.8129 292.984C36.3482 290.756 36.3482 290.756 38.3548 288.414C39.0983 287.534 39.8418 286.654 40.6078 285.747C41.417 284.807 42.2275 283.868 43.0392 282.93C49.9077 274.991 56.3205 266.932 62.2339 258.251C62.9091 257.268 63.5842 256.286 64.2798 255.273C74.7064 239.606 87.7091 219.44 88.0839 200.167C88.1008 199.5 88.1176 198.833 88.1349 198.145C88.1884 196.015 88.2367 193.885 88.2839 191.755C88.3311 189.638 88.3797 187.521 88.4328 185.404C88.4658 184.09 88.4955 182.776 88.5214 181.461C88.6299 177.131 88.9395 172.944 89.6549 168.676C91.4151 167.194 91.4151 167.194 93.5967 166.448C94.3095 166.185 95.0224 165.922 95.7568 165.652C96.4579 165.443 97.1589 165.235 97.8812 165.02C98.4456 164.841 99.01 164.662 99.5915 164.477C102.313 163.958 104.939 164.021 107.707 164.049Z" fill="#182626"/>
<path d="M96.9672 45.2814C109.8 47.4207 123.326 55.5705 132.614 64.4761C133.394 65.1524 134.174 65.8287 134.978 66.5255C148.047 77.8672 148.047 77.8672 149.981 83.6708C149.212 84.1362 148.442 84.6016 147.65 85.0811C143.912 87.581 140.972 90.726 137.927 94.0108C137.029 94.9743 137.029 94.9743 136.113 95.9573C130.437 102.153 125.526 108.775 120.732 115.662C104.238 139.061 104.238 139.061 90.5689 142.169C89.3624 142.169 88.1559 142.169 86.9128 142.169C87.704 137.184 88.6069 133.813 91.5972 129.715C93.3926 127.15 94.219 125.744 94.9106 122.631C94.2192 119.29 93.2092 117.421 91.483 114.519C86.3803 105.538 88.9436 97.957 91.4832 88.537C95.1358 74.5213 96.2182 59.7177 96.9672 45.2814Z" fill="#DFE2E1"/>
<path d="M253.267 39.7972C253.547 47.01 252.871 54.0023 251.96 61.1413C251.579 64.1416 251.259 67.1421 250.975 70.1531C250.899 70.9401 250.824 71.7272 250.746 72.5381C250.601 74.0681 250.462 75.5986 250.329 77.1297C249.996 80.5694 249.733 82.5737 247.783 85.4988C247.282 85.1559 246.781 84.8131 246.265 84.4598C234.982 77.176 221.744 73.831 208.479 72.5881C207.684 72.5092 206.889 72.4302 206.069 72.3489C204.131 72.1572 202.192 71.9721 200.253 71.7883C204.501 60.0001 216.602 52.1727 227.42 46.8863C231.861 44.8221 236.378 43.1148 241.042 41.6252C241.636 41.4352 242.231 41.2452 242.844 41.0495C246.404 39.9934 249.561 39.6147 253.267 39.7972Z" fill="#E0E1E0"/>
<path d="M109.082 286.333C110.126 286.486 110.126 286.486 111.192 286.643C111.891 286.729 112.589 286.815 113.309 286.904C115.623 287.615 116.472 288.373 117.99 290.242C119.263 296.264 117.141 302.113 115.134 307.723C114.845 308.562 114.556 309.4 114.258 310.264C112.533 315.206 110.671 320.079 108.678 324.918C104.953 333.995 102.555 343.375 100.359 352.921C99.7093 355.139 99.7093 355.139 97.8812 357.881C95.6318 358.213 95.6318 358.213 92.9683 358.166C92.094 358.163 91.2198 358.159 90.319 358.156C87.8351 357.882 86.3003 357.319 84.1707 356.053C85.1677 345.825 87.8013 336.389 90.7426 326.584C91.4747 324.09 92.1625 321.588 92.8362 319.077C94.9111 311.395 97.1246 303.899 100.281 296.583C100.534 295.99 100.787 295.397 101.048 294.786C104.631 286.88 104.631 286.88 109.082 286.333Z" fill="#192525"/>
<path d="M220.876 121.66C222.977 125.224 222.619 128.99 222.19 133.028C221.888 133.632 221.586 134.235 221.276 134.857C219.847 134.726 218.419 134.592 216.991 134.457C216.196 134.382 215.4 134.308 214.581 134.232C212.135 133.943 212.135 133.943 209.836 133.475C198.848 131.315 190.651 135.181 181.287 140.626C176.869 143.083 174.189 144.034 169.176 143.083C166.377 141.083 166.377 141.083 164.606 138.513C164.848 134.731 166 132.96 168.776 130.458C182.578 118.82 204.343 111.58 220.876 121.66Z" fill="#1B2A2A"/>
<path d="M106.108 61.734C118.841 63.6127 128.769 72.6033 137.099 81.9748C137.594 82.8143 137.594 82.8143 138.099 83.6708C137.185 86.4129 137.185 86.4129 135.017 87.6233C134.092 88.0345 133.168 88.4457 132.215 88.8694C123.051 93.3043 116.94 98.7283 111.22 107.143C109.764 109.264 109.764 109.264 107.936 111.092C105.153 110.914 103.102 110.556 100.68 109.149C99.05 106.272 99.8198 104.144 100.623 101.037C103.441 96.7721 107.035 94.336 111.249 91.6115C111.871 91.1961 112.493 90.7808 113.134 90.3529C117.739 87.3269 117.739 87.3269 119.818 87.3269C117.854 85.259 115.8 83.6065 113.477 81.957C109.544 79.049 106.985 75.846 104.279 71.7884C104.037 70.0174 104.037 70.0174 104.051 68.1322C104.046 67.5101 104.042 66.888 104.037 66.247C104.279 64.4761 104.279 64.4761 106.108 61.734Z" fill="#19282C"/>
<path d="M213.299 137.609C216.707 139.56 218.24 142.201 219.448 145.825C219.785 150.965 219.601 154.175 216.706 158.621C212.983 162.216 208.448 163.289 203.395 163.591C200.169 163.51 199.469 163.29 196.768 161.249C195.778 159.948 195.778 159.948 194.769 158.621C194.071 157.811 193.374 157 192.655 156.165C190.545 152.022 190.378 148.561 191.113 143.997C195.738 134.574 204.314 133.832 213.299 137.609Z" fill="#1A2C2F"/>
<path d="M296.226 202.495C296.83 203.098 297.433 203.702 298.054 204.323C297.878 209.619 297.155 213.091 293.484 217.12C284.889 222.525 276.174 224.479 266.063 223.518C264.235 221.69 264.235 221.69 263.721 218.719C264.36 214.459 265.521 213.751 268.725 211.161C271.86 208.938 275.172 207.338 278.688 205.808C279.41 205.491 280.132 205.174 280.875 204.847C285.865 202.759 290.799 201.017 296.226 202.495Z" fill="#152222"/>
<path d="M157.293 326.804C159.764 328.45 159.764 328.45 161.864 331.374C162.475 335.062 162.376 338.671 162.263 342.399C162.258 343.394 162.253 344.389 162.247 345.414C162.117 353.89 162.117 353.89 160.035 356.967C157.489 357.815 155.821 358.03 153.18 358.052C152.473 358.065 151.766 358.078 151.038 358.091C149.067 357.881 149.067 357.881 146.325 356.053C145.97 353.652 145.97 353.652 145.961 350.636C145.955 349.006 145.955 349.006 145.95 347.343C145.961 346.201 145.971 345.06 145.982 343.885C145.972 342.754 145.961 341.624 145.95 340.459C145.954 339.368 145.957 338.278 145.961 337.154C145.964 336.156 145.967 335.158 145.97 334.129C146.369 331.032 147.223 329.302 149.067 326.804C152.015 325.33 154.151 326.058 157.293 326.804Z" fill="#1D2929"/>
<path d="M188.371 333.202C191.02 332.741 191.02 332.741 194.197 332.688C195.763 332.629 195.763 332.629 197.361 332.57C200.253 333.202 200.253 333.202 202.434 335.48C204.241 339.408 204.423 342.367 204.309 346.627C204.315 347.32 204.322 348.013 204.329 348.728C204.272 353.695 204.272 353.695 202.684 356.013C199.965 357.721 197.503 358.046 194.369 358.109C193.673 358.133 192.976 358.156 192.259 358.181C189.609 357.795 188.485 356.968 186.542 355.139C186.098 353.109 186.098 353.109 186.121 350.768C186.125 349.924 186.128 349.079 186.132 348.208C186.154 347.328 186.177 346.448 186.2 345.541C186.201 344.661 186.202 343.781 186.203 342.874C186.285 336.329 186.285 336.329 188.371 333.202Z" fill="#212624"/>
<path d="M168.262 291.156C170.606 292.527 172.733 293.8 174.66 295.726C174.982 300.554 175.123 303.717 171.918 307.609C168.979 309.737 166.333 309.935 162.778 309.437C160.104 307.768 157.81 305.901 156.379 303.039C155.917 298.263 155.917 298.263 156.379 295.726C160.083 291.925 162.993 290.65 168.262 291.156Z" fill="#1E2A29"/>
<path d="M117.99 89.155C116.927 91.668 115.747 93.2904 113.934 95.3819C110.666 99.1899 109.023 103.458 107.936 108.35C107.634 108.953 107.332 109.556 107.022 110.178C104.529 110.38 102.941 110.455 100.738 109.207C99.0474 106.296 99.8042 104.205 100.623 101.037C103.179 97.2993 106.056 95.003 109.821 92.5255C111.251 91.5694 111.251 91.5694 112.709 90.5939C115.248 89.155 115.248 89.155 117.99 89.155Z" fill="#0E191A"/>
<path d="M239.556 60.8199C240.16 61.4232 240.763 62.0264 241.384 62.648C241.258 66.5628 241.119 68.962 238.985 72.2453C235.464 74.4695 232.151 73.9723 228.188 73.1594C227.717 73.0086 227.245 72.8577 226.76 72.7023C226.443 69.2911 226.493 67.638 228.359 64.7046C231.94 61.1236 234.467 60.3774 239.556 60.8199Z" fill="#27302F"/>
<path d="M292.57 158.621C295.909 159.764 296.94 160.149 298.968 163.192C299.362 166.801 299.522 168.79 297.426 171.818C294.961 173.483 293.657 173.57 290.742 173.246C289.054 170.398 288.566 168.326 288.914 165.02C289.517 164.416 290.121 163.813 290.742 163.192C289.837 162.588 288.932 161.985 288 161.364C289.508 161.364 291.016 161.364 292.57 161.364C292.57 160.459 292.57 159.554 292.57 158.621Z" fill="#D7DCDD"/>
<path d="M197.511 132.115C205.783 131.65 213.264 133.04 221.276 134.857C219.768 136.365 218.259 137.873 216.706 139.427C216.173 139.239 215.64 139.052 215.092 138.859C208.932 136.835 203.059 136.093 196.597 135.771C196.898 134.564 197.2 133.358 197.511 132.115Z" fill="#E8EDEA"/>
<path d="M106.108 61.734C111.48 62.3108 115.607 63.871 119.818 67.2182C119.818 67.5198 119.818 67.8215 119.818 68.1322C114.992 68.7355 110.166 69.3388 105.193 69.9603C105.193 62.648 105.193 62.648 106.108 61.734Z" fill="#0F1315"/>
<path d="M177.402 190.613C177.402 191.216 177.402 191.819 177.402 192.441C176.497 192.742 175.592 193.044 174.66 193.355C173.781 196.059 173.781 196.059 173.232 199.239C172.102 205.053 172.102 205.053 170.09 207.065C170.09 205.255 170.09 203.446 170.09 201.581C168.582 202.184 167.074 202.788 165.52 203.409C167.329 200.393 169.139 197.377 171.004 194.269C170.099 193.967 169.194 193.666 168.262 193.355C169.441 192.894 170.622 192.438 171.804 191.984C172.79 191.602 172.79 191.602 173.796 191.213C175.574 190.613 175.574 190.613 177.402 190.613Z" fill="#9DA098"/>
<path d="M97.8812 160.45C98.4845 160.751 99.0877 161.053 99.7093 161.364C99.4076 161.665 99.106 161.967 98.7952 162.278C102.716 162.579 106.638 162.881 110.678 163.192C110.678 163.493 110.678 163.795 110.678 164.106C109.435 164.256 109.435 164.256 108.168 164.409C100.536 165.387 100.536 165.387 93.1968 167.59C91.2795 168.312 91.2795 168.312 89.6549 168.676C87.3127 167.476 87.3127 167.476 85.9988 165.934C86.8259 165.685 86.8259 165.685 87.6697 165.43C93.1793 163.722 93.1793 163.722 97.8812 160.45Z" fill="#ABB2AE"/>
<path d="M223.104 154.051C224.009 154.051 224.914 154.051 225.846 154.051C224.932 156.793 224.932 156.793 223.335 157.874C221.095 158.978 218.85 160.069 216.591 161.135C215.821 161.523 215.05 161.91 214.256 162.31C209.403 164.623 206.41 165.498 201.167 164.106C201.167 163.804 201.167 163.502 201.167 163.192C201.763 163.091 202.359 162.991 202.974 162.888C207.62 162.045 211.769 161.236 215.791 158.621C217.075 156.747 217.075 156.747 217.62 154.965C220.334 155.418 220.334 155.418 223.104 155.879C223.104 155.276 223.104 154.673 223.104 154.051Z" fill="#C6CDC4"/>
<path d="M170.09 201.581C170.178 206.56 170.207 211.305 169.176 216.206C168.572 216.206 167.969 216.206 167.348 216.206C167.281 215.232 167.281 215.232 167.212 214.238C167.11 212.978 167.11 212.978 167.005 211.693C166.941 210.855 166.878 210.017 166.812 209.154C166.687 208.465 166.562 207.775 166.434 207.065C165.83 206.764 165.227 206.462 164.606 206.151C164.606 205.246 164.606 204.341 164.606 203.409C168.033 201.581 168.033 201.581 170.09 201.581Z" fill="#5D665D"/>
<path d="M169.176 194.269C169.779 194.269 170.382 194.269 171.004 194.269C169.82 199.074 167.568 201.822 164.034 205.123C163.563 205.578 163.092 206.033 162.606 206.501C161.453 207.612 160.288 208.711 159.121 209.807C158.82 208.902 158.518 207.998 158.207 207.065C158.792 206.858 159.376 206.651 159.978 206.437C162.101 205.395 162.101 205.395 162.378 203.009C162.51 202.236 162.642 201.463 162.778 200.667C164.091 199.01 164.091 199.01 165.52 197.925C166.123 197.925 166.726 197.925 167.348 197.925C167.348 197.322 167.348 196.718 167.348 196.097C167.951 196.097 168.554 196.097 169.176 196.097C169.176 195.494 169.176 194.89 169.176 194.269Z" fill="#CACAC5"/>
<path d="M116.162 96.4673C116.765 97.0705 117.368 97.6738 117.99 98.2954C116.659 100.087 115.326 101.876 113.991 103.665C113.614 104.173 113.237 104.681 112.848 105.204C111.294 107.285 109.775 109.253 107.936 111.092C105.993 110.749 105.993 110.749 104.279 110.178C105.184 110.178 106.089 110.178 107.022 110.178C107.248 109.216 107.474 108.255 107.707 107.264C109.11 102.372 111.99 99.2979 116.162 96.4673Z" fill="#193636"/>
<path d="M197.511 133.029C197.511 133.632 197.511 134.235 197.511 134.857C198.114 135.46 198.717 136.063 199.339 136.685C198.321 137.222 198.321 137.222 197.282 137.77C194.588 139.546 193.004 141.405 191.113 143.997C191.142 142.152 191.172 140.308 191.202 138.463C191.228 136.61 191.228 136.61 190.199 134.857C192.855 133.708 194.582 133.029 197.511 133.029Z" fill="#D8D8D5"/>
<path d="M197.511 132.115C199.129 132.065 200.748 132.03 202.367 132C203.268 131.979 204.169 131.958 205.098 131.936C207.565 132.115 207.565 132.115 210.307 133.943C209.402 133.943 208.498 133.943 207.565 133.943C207.565 134.546 207.565 135.149 207.565 135.771C203.946 135.771 200.326 135.771 196.597 135.771C196.898 134.564 197.2 133.358 197.511 132.115Z" fill="#E8E8E7"/>
<path d="M260.579 126.63C261.182 126.63 261.786 126.63 262.407 126.63C263.508 133.078 264.492 139.275 264.235 145.825C262.727 145.825 261.219 145.825 259.665 145.825C260.268 145.523 260.872 145.222 261.493 144.911C261.611 138.77 261.15 132.744 260.579 126.63Z" fill="#D7DBD8"/>
<path d="M128.958 74.5305C136.455 80.6925 136.455 80.6925 138.099 83.6708C137.797 84.5757 137.495 85.4806 137.185 86.4129C135.676 86.7146 134.168 87.0162 132.614 87.327C132.916 86.4221 133.218 85.5172 133.529 84.5849C131.842 79.6868 131.842 79.6868 128.044 76.3586C128.346 75.7553 128.648 75.1521 128.958 74.5305Z" fill="#2D3F40"/>
<path d="M144.497 111.092C144.799 111.997 145.1 112.902 145.411 113.834C144.751 114.456 144.091 115.078 143.411 115.719C141.47 117.633 139.956 119.624 138.441 121.889C137.725 122.85 137.009 123.812 136.271 124.802C135.366 124.802 134.461 124.802 133.529 124.802C134.83 120.652 136.93 118.368 140.041 115.376C140.873 114.569 141.705 113.762 142.562 112.931C143.2 112.324 143.839 111.717 144.497 111.092Z" fill="#E5E7E6"/>
<path d="M99.7093 165.934C98.7896 168.38 98.2997 169.387 95.9032 170.547C95.1609 170.759 94.4186 170.971 93.6538 171.189C92.5333 171.522 92.5333 171.522 91.3901 171.861C90.5312 172.094 90.5312 172.094 89.6549 172.332C89.6549 170.218 89.6549 170.218 90.5689 167.762C93.4579 166.079 96.5787 164.368 99.7093 165.934Z" fill="#364440"/>
<path d="M160.949 207.065C161.251 207.97 161.553 208.875 161.864 209.807C161.017 211.443 161.017 211.443 159.75 213.121C159.133 213.958 159.133 213.958 158.504 214.813C157.293 216.206 157.293 216.206 155.465 217.12C154.514 218.62 153.596 220.142 152.723 221.69C152.422 221.086 152.12 220.483 151.809 219.862C152.791 217.812 152.791 217.812 154.266 215.406C154.74 214.616 155.215 213.827 155.704 213.014C157.271 210.754 158.947 208.941 160.949 207.065Z" fill="#363E34"/>
<path d="M283.43 158.621C286.446 158.621 289.463 158.621 292.57 158.621C292.57 159.526 292.57 160.431 292.57 161.364C288.951 161.967 285.331 162.57 281.602 163.192C282.205 161.683 282.808 160.175 283.43 158.621Z" fill="#EBEFEE"/>
<path d="M292.57 234.486C293.173 234.486 293.777 234.486 294.398 234.486C293.078 237.446 291.421 239.623 289.257 242.027C288.68 242.673 288.102 243.318 287.507 243.984C286.846 244.712 286.846 244.712 286.172 245.455C284.965 245.153 283.759 244.851 282.516 244.541C283.421 243.937 284.326 243.334 285.258 242.713C285.522 242.109 285.786 241.506 286.058 240.884C287.451 238.407 289.068 238.224 291.656 237.228C291.958 236.323 292.259 235.419 292.57 234.486Z" fill="#E5E9E9"/>
<path d="M117.076 91.8971C118.904 92.8111 118.904 92.8111 118.904 92.8111L117.076 91.8971ZM115.248 92.8111C115.851 93.1128 116.454 93.4144 117.076 93.7252C116.333 95.9531 116.333 95.9531 115.248 98.2953C114.343 98.597 113.438 98.8986 112.506 99.2094C111.866 100.413 111.256 101.632 110.678 102.865C109.773 103.318 109.773 103.318 108.85 103.78C110.094 99.0282 112.019 96.38 115.248 92.8111Z" fill="#0D2329"/>
<path d="M103.365 156.793C103.667 157.397 103.969 158 104.279 158.622C103.978 159.225 103.676 159.828 103.365 160.45C104.572 161.354 105.778 162.259 107.022 163.192C104.005 163.192 100.989 163.192 97.8812 163.192C99.5303 160.208 100.472 158.723 103.365 156.793Z" fill="#D7D7D4"/>
<path d="M191.113 143.997C191.414 143.997 191.716 143.997 192.027 143.997C192.027 146.41 192.027 148.823 192.027 151.309C192.932 151.611 193.836 151.912 194.769 152.223C195.07 154.335 195.372 156.446 195.683 158.621C192.878 156.752 192.24 156.166 191.113 153.137C190.934 150.781 190.934 150.781 190.998 148.339C191.023 147.116 191.023 147.116 191.048 145.868C191.07 145.25 191.091 144.633 191.113 143.997Z" fill="#303F40"/>
<path d="M194.769 190.613C195.372 190.914 195.975 191.216 196.597 191.527C195.055 195.638 193.108 199.505 191.113 203.409C190.509 203.409 189.906 203.409 189.285 203.409C190.648 198.864 192.579 194.8 194.769 190.613Z" fill="#2D3331"/>
<path d="M271.547 242.713C271.547 243.316 271.547 243.919 271.547 244.541C270.643 244.541 269.738 244.541 268.805 244.541C268.504 246.049 268.202 247.557 267.891 249.111C265.454 249.72 263.017 250.329 260.579 250.939C268.577 242.713 268.577 242.713 271.547 242.713Z" fill="#37423B"/>
<path d="M104.279 96.4673C104.876 98.0526 104.876 98.0526 105.194 100.123C104.283 102.08 104.283 102.08 102.966 104.008C102.533 104.654 102.101 105.299 101.655 105.965C101.315 106.45 100.974 106.936 100.623 107.436C99.8765 105.294 99.5427 104.203 100.388 102.055C103.264 97.4829 103.264 97.4829 104.279 96.4673Z" fill="#242929"/>
<path d="M200.435 48.3269C200.978 48.5284 201.521 48.7299 202.081 48.9375C201.176 48.9375 200.271 48.9375 199.339 48.9375C199.15 49.4465 198.962 49.9555 198.768 50.4799C197.008 53.4391 194.734 55.0453 192.027 57.1638C192.56 54.2156 193.418 52.6158 195.511 50.4799C195.97 49.9933 196.428 49.5067 196.9 49.0053C198.425 48.0234 198.425 48.0234 200.435 48.3269Z" fill="#171E1B"/>
<path d="M124.388 184.214C124.991 184.516 125.595 184.818 126.216 185.128C125.217 186.355 124.205 187.572 123.189 188.785C122.345 189.803 122.345 189.803 121.485 190.841C119.818 192.441 119.818 192.441 117.076 192.441C119.489 189.726 121.902 187.011 124.388 184.214Z" fill="#E9EEEC"/>
<path d="M224.018 175.074C224.621 175.376 225.224 175.677 225.846 175.988C222.19 181.995 222.19 181.995 218.534 183.3C218.965 179.417 221.245 177.633 224.018 175.074Z" fill="#D9D6C8"/>
<path d="M164.606 203.409C165.51 203.409 166.415 203.409 167.348 203.409C168.203 206.293 168.358 208.862 168.319 211.864C168.311 212.679 168.302 213.495 168.294 214.335C168.283 214.952 168.273 215.569 168.262 216.206C167.96 216.206 167.658 216.206 167.348 216.206C167.281 215.232 167.281 215.232 167.212 214.238C167.11 212.978 167.11 212.978 167.005 211.692C166.941 210.855 166.878 210.017 166.812 209.154C166.687 208.465 166.562 207.775 166.434 207.065C165.83 206.764 165.227 206.462 164.606 206.151C164.606 205.246 164.606 204.341 164.606 203.409Z" fill="#414D45"/>
<path d="M214.877 134.857C216.989 134.857 219.1 134.857 221.276 134.857C219.219 137.199 219.219 137.199 216.706 139.427C214.592 139.255 214.592 139.255 213.049 138.513C213.653 137.306 214.256 136.1 214.877 134.857Z" fill="#EFF3F3"/>
<path d="M262.407 158.621C260.044 160.197 258.716 160.858 256.066 161.535C255.455 161.699 254.843 161.863 254.213 162.031C252.127 162.308 250.689 161.992 248.697 161.364C253.6 158.912 256.932 158.333 262.407 158.621Z" fill="#0A1B1B"/>
<path d="M110.678 103.78C111.281 103.78 111.884 103.78 112.506 103.78C110.58 109.261 110.58 109.261 107.936 111.092C105.936 110.806 105.936 110.806 104.279 110.178C105.184 110.178 106.089 110.178 107.022 110.178C107.285 109.461 107.549 108.745 107.821 108.007C108.85 105.608 108.85 105.608 110.678 103.78Z" fill="#273F40"/>
<path d="M217.62 181.472C218.47 183.804 218.612 184.891 217.823 187.285C217.473 188.006 217.123 188.727 216.763 189.47C216.241 190.566 216.241 190.566 215.709 191.684C215.435 192.235 215.16 192.787 214.877 193.355C214.274 192.751 213.671 192.148 213.049 191.527C213.639 190.193 214.23 188.861 214.82 187.528C215.149 186.785 215.478 186.043 215.816 185.278C216.392 183.998 216.992 182.728 217.62 181.472Z" fill="#525450"/>
<path d="M262.407 137.599C263.01 137.9 263.614 138.202 264.235 138.513C264.235 140.926 264.235 143.339 264.235 145.825C262.727 145.825 261.219 145.825 259.665 145.825C260.268 145.523 260.872 145.222 261.493 144.911C261.918 143.179 261.918 143.179 262.064 141.198C262.177 140.01 262.291 138.822 262.407 137.599Z" fill="#C8D0D0"/>
<path d="M67.7181 99.2094C68.6322 101.951 68.6322 101.951 67.7181 104.694C67.1149 104.694 66.5116 104.694 65.8901 104.694C65.2868 105.9 64.6836 107.107 64.062 108.35C63.4588 108.048 62.8555 107.746 62.2339 107.436C64.0437 104.721 65.8535 102.006 67.7181 99.2094Z" fill="#2E3935"/>
<path d="M226.76 72.7024C229.254 72.7324 231.601 73.2179 234.072 73.6164C233.771 74.2197 233.469 74.8229 233.158 75.4445C230.483 76.3122 229.11 76.5704 226.474 75.5016C225.965 75.1811 225.456 74.8607 224.932 74.5305C225.535 73.9272 226.138 73.3239 226.76 72.7024Z" fill="#879290"/>
<path d="M271.547 158.621C271.246 159.225 270.944 159.828 270.633 160.45C268.841 160.892 268.841 160.892 266.635 161.135C265.911 161.225 265.188 161.314 264.442 161.406C262.407 161.364 262.407 161.364 259.665 159.535C263.674 158.894 267.487 158.522 271.547 158.621Z" fill="#CED6D6"/>
<path d="M92.397 113.834C95.1391 114.748 95.1391 114.748 96.2817 116.29C97.1843 119.073 96.6932 121.072 96.0532 123.888C95.7515 123.888 95.4499 123.888 95.1391 123.888C93.7818 118.911 93.7818 118.911 92.397 113.834Z" fill="#C3CBC8"/>
<path d="M158.207 97.3813C158.207 98.2862 158.207 99.1911 158.207 100.123C156.037 102.009 156.037 102.009 153.637 103.78C153.034 104.383 152.431 104.986 151.809 105.608C151.809 102.866 151.809 102.866 153.209 101.398C154.1 100.682 154.1 100.682 155.008 99.9521C155.602 99.4678 156.196 98.9835 156.808 98.4846C157.27 98.1205 157.732 97.7565 158.207 97.3813Z" fill="#D6DDD4"/>
<path d="M220.362 132.114C220.663 133.019 220.965 133.924 221.276 134.856C218.259 134.555 215.243 134.253 212.135 133.942C215.275 131.849 216.692 131.951 220.362 132.114Z" fill="#384744"/>
<path d="M57.6638 114.748C57.9654 114.748 58.267 114.748 58.5778 114.748C58.5401 115.559 58.5024 116.369 58.4635 117.204C58.5769 120.207 59.1389 122.11 60.4059 124.802C59.1993 124.199 57.9928 123.596 56.7497 122.974C56.6355 116.804 56.6355 116.804 57.6638 114.748Z" fill="#303D37"/>
<path d="M228.588 46.1954C229.191 46.4971 229.794 46.7987 230.416 47.1095C227.117 50.1176 224.816 51.2652 220.362 51.6796C222.689 48.9643 225.318 47.587 228.588 46.1954Z" fill="#C0C9C4"/>
<path d="M62.2339 258.251C63.1388 258.553 64.0437 258.854 64.976 259.165C63.4679 260.975 61.9597 262.785 60.4059 264.649C59.8026 264.348 59.1993 264.046 58.5778 263.735C59.7843 261.926 60.9908 260.116 62.2339 258.251Z" fill="#27302E"/>
<path d="M264.235 216.206C264.838 216.206 265.442 216.206 266.063 216.206C266.346 216.922 266.629 217.638 266.92 218.376C267.826 220.706 267.826 220.706 268.805 222.604C267.297 222.302 265.789 222.001 264.235 221.69C264.235 219.88 264.235 218.07 264.235 216.206Z" fill="#11140F"/>
<path d="M181.058 188.785C181.058 189.388 181.058 189.991 181.058 190.613C180.153 190.613 179.248 190.613 178.316 190.613C178.014 191.216 177.713 191.819 177.402 192.441C177.402 191.536 177.402 190.631 177.402 189.699C179.23 188.785 179.23 188.785 181.058 188.785ZM174.66 192.441C175.565 192.742 176.47 193.044 177.402 193.355C175.894 194.561 174.386 195.768 172.832 197.011C173.435 195.503 174.038 193.995 174.66 192.441Z" fill="#BEC0B9"/>
<path d="M292.57 158.621C293.777 158.923 294.983 159.225 296.226 159.535C296.226 160.44 296.226 161.345 296.226 162.278C293.512 162.278 290.797 162.278 288 162.278C288 161.976 288 161.674 288 161.364C289.508 161.364 291.016 161.364 292.57 161.364C292.57 160.459 292.57 159.554 292.57 158.621Z" fill="#CBD3D4"/>
<path d="M295.312 253.681C296.217 253.983 297.122 254.284 298.054 254.595C294.887 257.31 294.887 257.31 291.656 260.079C292.533 256.572 292.786 255.878 295.312 253.681Z" fill="#29342C"/>
<path d="M205.737 251.853C206.642 251.853 207.547 251.853 208.479 251.853C207.876 253.361 207.273 254.869 206.651 256.423C205.445 256.423 204.238 256.423 202.995 256.423C204.709 252.881 204.709 252.881 205.737 251.853Z" fill="#0E1811"/>
<path d="M95.1391 165.934C92.397 167.762 92.397 167.762 89.6549 168.676C87.6555 167.362 87.6555 167.362 85.9988 165.934C89.2678 164.802 91.791 165.249 95.1391 165.934Z" fill="#818483"/>
<path d="M95.1391 162.278C95.4408 162.881 95.7424 163.484 96.0532 164.106C97.863 164.106 99.6727 164.106 101.537 164.106C98.4279 166.019 96.005 166.098 92.397 165.934C93.3019 164.727 94.2068 163.521 95.1391 162.278Z" fill="#9B9F9C"/>
<path d="M115.248 83.6708C117.51 84.5757 117.51 84.5757 119.818 85.4988C119.818 86.1021 119.818 86.7054 119.818 87.3269C118.31 87.9302 116.802 88.5334 115.248 89.155C115.248 87.3269 115.248 85.4988 115.248 83.6708Z" fill="#B6BCB7"/>
<path d="M136.271 80.9287C138.08 81.532 139.89 82.1352 141.755 82.7568C141.453 83.9633 141.152 85.1698 140.841 86.4129C139.936 86.1113 139.031 85.8096 138.099 85.4989C137.013 83.1567 137.013 83.1567 136.271 80.9287Z" fill="#EEEFEE"/>
<path d="M207.565 202.495C208.168 203.4 208.772 204.305 209.393 205.237C208.488 207.047 207.583 208.857 206.651 210.721C206.048 210.42 205.445 210.118 204.823 209.807C206.537 204.552 206.537 204.552 207.565 202.495Z" fill="#D2D9DB"/>
<path d="M96.9672 165.934C96.9672 166.839 96.9672 167.744 96.9672 168.676C94.5541 169.279 92.1411 169.882 89.6549 170.504C89.9565 169.599 90.2582 168.694 90.5689 167.762C92.7926 166.678 94.4812 165.934 96.9672 165.934Z" fill="#5B625F"/>
<path d="M130.786 126.63C131.39 126.63 131.993 126.63 132.614 126.63C132.251 129.268 131.892 130.124 129.815 131.886C129.231 132.263 128.646 132.64 128.044 133.029C128.604 130.321 129.19 129.025 130.786 126.63Z" fill="#E5E7EA"/>
<path d="M487.969 237.793V205.527H536.367C548.216 205.527 557.422 202.52 563.984 196.504C570.638 190.397 573.965 181.738 573.965 170.527V170.254C573.965 159.043 570.638 150.43 563.984 144.414C557.422 138.398 548.216 135.391 536.367 135.391H487.969V102.715H546.484C560.339 102.715 572.461 105.54 582.852 111.191C593.242 116.751 601.309 124.59 607.051 134.707C612.884 144.824 615.801 156.628 615.801 170.117V170.391C615.801 183.971 612.884 195.82 607.051 205.938C601.309 216.055 593.242 223.893 582.852 229.453C572.461 235.013 560.339 237.793 546.484 237.793H487.969ZM467.188 300V102.715H508.477V300H467.188ZM636.855 300V153.438H676.777V179.004H677.598C679.785 169.98 683.75 162.962 689.492 157.949C695.234 152.936 702.389 150.43 710.957 150.43C713.145 150.43 715.241 150.566 717.246 150.84C719.251 151.113 720.983 151.478 722.441 151.934V187.07C720.801 186.432 718.704 185.931 716.152 185.566C713.6 185.111 710.866 184.883 707.949 184.883C701.387 184.883 695.781 186.159 691.133 188.711C686.484 191.263 682.93 195 680.469 199.922C678.008 204.844 676.777 210.859 676.777 217.969V300H636.855ZM801.465 303.008C786.608 303.008 773.757 299.954 762.91 293.848C752.064 287.741 743.678 278.991 737.754 267.598C731.829 256.204 728.867 242.578 728.867 226.719V226.445C728.867 210.677 731.875 197.142 737.891 185.84C743.906 174.447 752.337 165.697 763.184 159.59C774.03 153.483 786.745 150.43 801.328 150.43C816.003 150.43 828.763 153.483 839.609 159.59C850.547 165.605 859.023 174.31 865.039 185.703C871.055 197.005 874.062 210.586 874.062 226.445V226.719C874.062 242.669 871.055 256.341 865.039 267.734C859.115 279.128 850.729 287.878 839.883 293.984C829.036 300 816.23 303.008 801.465 303.008ZM801.602 271.699C808.073 271.699 813.678 269.967 818.418 266.504C823.249 262.949 826.94 257.845 829.492 251.191C832.135 244.447 833.457 236.289 833.457 226.719V226.445C833.457 216.966 832.135 208.9 829.492 202.246C826.849 195.592 823.112 190.534 818.281 187.07C813.451 183.516 807.799 181.738 801.328 181.738C794.948 181.738 789.342 183.516 784.512 187.07C779.772 190.534 776.081 195.592 773.438 202.246C770.794 208.9 769.473 216.966 769.473 226.445V226.719C769.473 236.289 770.749 244.447 773.301 251.191C775.944 257.845 779.681 262.949 784.512 266.504C789.342 269.967 795.039 271.699 801.602 271.699ZM894.707 300V153.438H934.629V178.047H935.449C938.457 169.661 943.561 162.962 950.762 157.949C958.053 152.936 966.621 150.43 976.465 150.43C983.301 150.43 989.453 151.615 994.922 153.984C1000.39 156.354 1004.99 159.772 1008.73 164.238C1012.56 168.704 1015.25 174.173 1016.8 180.645H1017.62C1019.8 174.447 1023.09 169.115 1027.46 164.648C1031.93 160.091 1037.17 156.582 1043.18 154.121C1049.29 151.66 1055.94 150.43 1063.14 150.43C1072.71 150.43 1081.1 152.48 1088.3 156.582C1095.5 160.684 1101.11 166.426 1105.12 173.809C1109.13 181.191 1111.13 189.85 1111.13 199.785V300H1071.21V209.766C1071.21 204.115 1070.25 199.329 1068.34 195.41C1066.52 191.491 1063.83 188.529 1060.27 186.523C1056.81 184.518 1052.48 183.516 1047.29 183.516C1042.27 183.516 1037.85 184.655 1034.02 186.934C1030.29 189.212 1027.37 192.402 1025.27 196.504C1023.18 200.605 1022.13 205.391 1022.13 210.859V300H983.711V208.535C983.711 203.249 982.754 198.737 980.84 195C978.926 191.263 976.191 188.438 972.637 186.523C969.173 184.518 964.98 183.516 960.059 183.516C955.046 183.516 950.625 184.701 946.797 187.07C942.969 189.44 939.961 192.721 937.773 196.914C935.677 201.107 934.629 205.983 934.629 211.543V300H894.707ZM1136.43 347.852V153.438H1176.35V179.004H1177.3C1179.95 173.079 1183.41 167.975 1187.7 163.691C1192.07 159.408 1197.13 156.126 1202.87 153.848C1208.7 151.569 1215.08 150.43 1222.01 150.43C1234.41 150.43 1245.07 153.483 1254 159.59C1262.94 165.605 1269.82 174.31 1274.65 185.703C1279.48 197.096 1281.89 210.723 1281.89 226.582V226.719C1281.89 242.578 1279.48 256.204 1274.65 267.598C1269.91 278.991 1263.12 287.741 1254.28 293.848C1245.44 299.954 1234.86 303.008 1222.56 303.008C1215.63 303.008 1209.21 301.868 1203.28 299.59C1197.36 297.311 1192.21 294.121 1187.83 290.02C1183.46 285.827 1179.9 280.814 1177.17 274.98H1176.35V347.852H1136.43ZM1208.89 269.922C1215.54 269.922 1221.28 268.19 1226.11 264.727C1230.94 261.172 1234.68 256.159 1237.32 249.688C1239.97 243.216 1241.29 235.56 1241.29 226.719V226.582C1241.29 217.65 1239.97 209.948 1237.32 203.477C1234.68 197.005 1230.9 192.083 1225.98 188.711C1221.15 185.247 1215.45 183.516 1208.89 183.516C1202.42 183.516 1196.72 185.293 1191.8 188.848C1186.88 192.311 1183.05 197.279 1180.31 203.75C1177.58 210.13 1176.21 217.786 1176.21 226.719V226.855C1176.21 235.605 1177.58 243.216 1180.31 249.688C1183.14 256.159 1186.97 261.172 1191.8 264.727C1196.72 268.19 1202.42 269.922 1208.89 269.922ZM1360.92 303.008C1344.69 303.008 1332.66 299.59 1324.82 292.754C1316.99 285.918 1313.07 274.661 1313.07 258.984V183.516H1292.7V153.438H1313.07V117.617H1353.4V153.438H1380.2V183.516H1353.4V254.609C1353.4 261.445 1354.9 266.23 1357.91 268.965C1361.01 271.608 1365.57 272.93 1371.58 272.93C1373.4 272.93 1375 272.884 1376.37 272.793C1377.73 272.611 1379.01 272.428 1380.2 272.246V301.504C1378.01 301.868 1375.27 302.188 1371.99 302.461C1368.8 302.826 1365.11 303.008 1360.92 303.008ZM1405.62 300V102.715H1480.96C1500.74 102.715 1517.6 106.497 1531.54 114.062C1545.58 121.628 1556.33 132.702 1563.81 147.285C1571.28 161.777 1575.02 179.46 1575.02 200.332V200.605C1575.02 221.478 1571.28 239.342 1563.81 254.199C1556.43 269.056 1545.72 280.404 1531.68 288.242C1517.64 296.081 1500.74 300 1480.96 300H1405.62ZM1446.91 265.82H1476.04C1488.34 265.82 1498.73 263.359 1507.21 258.438C1515.68 253.516 1522.06 246.224 1526.35 236.562C1530.72 226.901 1532.91 214.961 1532.91 200.742V200.469C1532.91 186.706 1530.68 175.085 1526.21 165.605C1521.84 156.126 1515.41 148.971 1506.93 144.141C1498.46 139.219 1488.16 136.758 1476.04 136.758H1446.91V265.82ZM1665.53 303.008C1650.67 303.008 1637.82 299.954 1626.97 293.848C1616.13 287.741 1607.74 278.991 1601.82 267.598C1595.89 256.204 1592.93 242.578 1592.93 226.719V226.445C1592.93 210.677 1595.94 197.142 1601.95 185.84C1607.97 174.447 1616.4 165.697 1627.25 159.59C1638.09 153.483 1650.81 150.43 1665.39 150.43C1680.07 150.43 1692.83 153.483 1703.67 159.59C1714.61 165.605 1723.09 174.31 1729.1 185.703C1735.12 197.005 1738.12 210.586 1738.12 226.445V226.719C1738.12 242.669 1735.12 256.341 1729.1 267.734C1723.18 279.128 1714.79 287.878 1703.95 293.984C1693.1 300 1680.29 303.008 1665.53 303.008ZM1665.66 271.699C1672.14 271.699 1677.74 269.967 1682.48 266.504C1687.31 262.949 1691 257.845 1693.55 251.191C1696.2 244.447 1697.52 236.289 1697.52 226.719V226.445C1697.52 216.966 1696.2 208.9 1693.55 202.246C1690.91 195.592 1687.17 190.534 1682.34 187.07C1677.51 183.516 1671.86 181.738 1665.39 181.738C1659.01 181.738 1653.4 183.516 1648.57 187.07C1643.83 190.534 1640.14 195.592 1637.5 202.246C1634.86 208.9 1633.54 216.966 1633.54 226.445V226.719C1633.54 236.289 1634.81 244.447 1637.36 251.191C1640.01 257.845 1643.74 262.949 1648.57 266.504C1653.4 269.967 1659.1 271.699 1665.66 271.699ZM1827.27 350.859C1813.87 350.859 1802.15 348.991 1792.13 345.254C1782.19 341.608 1774.26 336.641 1768.34 330.352C1762.51 324.062 1758.95 316.999 1757.68 309.16L1757.54 307.93H1796.37L1796.78 308.887C1798.42 312.441 1801.84 315.586 1807.03 318.32C1812.23 321.055 1818.97 322.422 1827.27 322.422C1837.57 322.422 1845.4 319.961 1850.78 315.039C1856.16 310.117 1858.85 303.555 1858.85 295.352V272.93H1858.03C1855.48 278.034 1852.01 282.454 1847.64 286.191C1843.26 289.928 1838.11 292.845 1832.19 294.941C1826.35 296.947 1819.88 297.949 1812.77 297.949C1800.56 297.949 1789.99 295.033 1781.05 289.199C1772.21 283.366 1765.38 275.026 1760.55 264.18C1755.81 253.242 1753.44 240.208 1753.44 225.078V224.941C1753.44 209.355 1755.85 196.003 1760.68 184.883C1765.61 173.763 1772.53 165.241 1781.46 159.316C1790.4 153.392 1801.06 150.43 1813.46 150.43C1820.38 150.43 1826.72 151.569 1832.46 153.848C1838.2 156.126 1843.22 159.362 1847.5 163.555C1851.88 167.747 1855.38 172.715 1858.03 178.457H1858.85V153.438H1898.77V295.898C1898.77 306.745 1895.85 316.27 1890.02 324.473C1884.28 332.767 1876.03 339.238 1865.27 343.887C1854.61 348.535 1841.94 350.859 1827.27 350.859ZM1826.58 268.691C1833.14 268.691 1838.84 266.96 1843.67 263.496C1848.5 260.033 1852.24 255.111 1854.88 248.73C1857.62 242.35 1858.98 234.785 1858.98 226.035V225.898C1858.98 217.148 1857.62 209.629 1854.88 203.34C1852.24 196.96 1848.46 192.083 1843.54 188.711C1838.7 185.247 1833.05 183.516 1826.58 183.516C1820.02 183.516 1814.28 185.247 1809.36 188.711C1804.43 192.083 1800.65 196.914 1798.01 203.203C1795.36 209.492 1794.04 217.057 1794.04 225.898V226.035C1794.04 234.785 1795.36 242.35 1798.01 248.73C1800.65 255.111 1804.43 260.033 1809.36 263.496C1814.28 266.96 1820.02 268.691 1826.58 268.691ZM1993.52 350.859C1980.12 350.859 1968.4 348.991 1958.38 345.254C1948.44 341.608 1940.51 336.641 1934.59 330.352C1928.76 324.062 1925.2 316.999 1923.93 309.16L1923.79 307.93H1962.62L1963.03 308.887C1964.67 312.441 1968.09 315.586 1973.28 318.32C1978.48 321.055 1985.22 322.422 1993.52 322.422C2003.82 322.422 2011.65 319.961 2017.03 315.039C2022.41 310.117 2025.1 303.555 2025.1 295.352V272.93H2024.28C2021.73 278.034 2018.26 282.454 2013.89 286.191C2009.51 289.928 2004.36 292.845 1998.44 294.941C1992.6 296.947 1986.13 297.949 1979.02 297.949C1966.81 297.949 1956.24 295.033 1947.3 289.199C1938.46 283.366 1931.63 275.026 1926.8 264.18C1922.06 253.242 1919.69 240.208 1919.69 225.078V224.941C1919.69 209.355 1922.1 196.003 1926.93 184.883C1931.86 173.763 1938.78 165.241 1947.71 159.316C1956.65 153.392 1967.31 150.43 1979.71 150.43C1986.63 150.43 1992.97 151.569 1998.71 153.848C2004.45 156.126 2009.47 159.362 2013.75 163.555C2018.12 167.747 2021.63 172.715 2024.28 178.457H2025.1V153.438H2065.02V295.898C2065.02 306.745 2062.1 316.27 2056.27 324.473C2050.53 332.767 2042.28 339.238 2031.52 343.887C2020.86 348.535 2008.19 350.859 1993.52 350.859ZM1992.83 268.691C1999.39 268.691 2005.09 266.96 2009.92 263.496C2014.75 260.033 2018.49 255.111 2021.13 248.73C2023.87 242.35 2025.23 234.785 2025.23 226.035V225.898C2025.23 217.148 2023.87 209.629 2021.13 203.34C2018.49 196.96 2014.71 192.083 2009.79 188.711C2004.95 185.247 1999.3 183.516 1992.83 183.516C1986.27 183.516 1980.53 185.247 1975.61 188.711C1970.68 192.083 1966.9 196.914 1964.26 203.203C1961.61 209.492 1960.29 217.057 1960.29 225.898V226.035C1960.29 234.785 1961.61 242.35 1964.26 248.73C1966.9 255.111 1970.68 260.033 1975.61 263.496C1980.53 266.96 1986.27 268.691 1992.83 268.691ZM2114.24 348.262C2110.32 348.262 2106.54 348.079 2102.89 347.715C2099.24 347.35 2096.24 346.94 2093.87 346.484V316.816C2095.33 317.09 2097.19 317.363 2099.47 317.637C2101.75 318.001 2104.35 318.184 2107.27 318.184C2113.28 318.184 2118.02 317.181 2121.48 315.176C2124.95 313.171 2127.55 309.707 2129.28 304.785L2131.05 300L2079.24 153.438H2123.12L2156.21 275.938L2150.88 268.008H2158.4L2153.07 275.938L2186.15 153.438H2228.26L2177.95 302.598C2174.12 314.082 2169.29 323.151 2163.46 329.805C2157.71 336.458 2150.79 341.198 2142.68 344.023C2134.56 346.849 2125.08 348.262 2114.24 348.262Z" fill="white"/>
</svg>
